# Blender 4.5.0
# www.blender.org
mtllib dish_controller.mtl
o Base
v 0.125000 0.625000 0.250000
v 0.125000 1.000000 0.250000
v 0.500000 0.625000 0.250000
v 0.125000 0.625000 -1.250000
v 0.500000 0.625000 -1.250000
v 0.125000 1.000000 -1.250000
v 0.500000 0.625000 -1.500000
v 0.125000 1.000000 0.500000
v -0.500000 1.000000 0.500000
v 0.125000 1.000000 -1.500000
v -0.500000 1.000000 -1.500000
v 0.500000 -0.000000 -1.500000
v -0.500000 -0.000000 -1.500000
v 0.500000 0.000000 0.500000
v 0.500000 0.625000 0.500000
v -0.500000 0.000000 0.500000
v 0.125000 1.687500 0.312500
v 0.125000 1.687500 -1.312500
v 0.125000 1.000000 0.312500
v 0.125000 1.000000 -1.312500
v -0.375000 1.687500 0.312500
v -0.375000 1.687500 -1.312500
v -0.375000 1.000000 0.312500
v -0.375000 1.000000 -1.312500
v -0.375000 1.375000 -0.312500
v -0.375000 1.375000 -0.375000
v -0.375000 1.312500 -0.312500
v -0.375000 1.312500 -0.375000
v -0.500000 1.375000 -0.312500
v -0.500000 1.375000 -0.375000
v -0.375000 1.062500 -1.125000
v -0.437500 1.062500 -1.125000
v -0.437500 1.000000 -0.312500
v -0.437500 1.000000 -1.062500
v -0.500000 1.062500 -1.000000
v -0.500000 1.000000 -0.312500
v -0.375000 1.375000 -0.437500
v -0.375000 1.375000 -0.500000
v -0.375000 1.062500 -0.437500
v -0.375000 1.062500 -0.500000
v -0.437500 1.375000 -0.437500
v -0.437500 1.375000 -0.500000
v -0.437500 1.062500 -0.437500
v -0.437500 1.062500 -0.500000
v -0.437500 1.312500 -0.312500
v -0.437500 1.312500 -0.375000
v -0.437500 1.062500 -0.375000
v -0.500000 1.062500 -0.375000
v -0.437500 1.062500 -1.000000
v -0.375000 1.062500 -1.000000
v -0.437500 1.187500 -1.000000
v -0.437500 1.187500 -1.062500
v -0.375000 1.250000 -1.000000
v -0.375000 1.250000 -1.062500
v -0.375000 1.187500 -1.000000
v -0.375000 1.187500 -1.062500
v -0.500000 1.250000 -1.000000
v -0.500000 1.250000 -1.062500
v -0.375000 1.312500 -1.125000
v -0.375000 1.312500 -1.187500
v -0.375000 1.000000 -1.187500
v -0.437500 1.312500 -1.125000
v -0.437500 1.312500 -1.187500
v -0.437500 1.000000 -1.187500
v -0.500000 1.000000 -1.062500
v -0.437500 1.000000 -0.437500
v -0.375000 1.000000 -0.437500
v -0.245617 1.784387 0.521070
v -0.206910 1.787695 0.472111
v -0.290864 1.762659 0.483830
v -0.252157 1.765967 0.434870
v -0.340577 2.076928 0.465764
v -0.301870 2.080236 0.416804
v -0.385824 2.055200 0.428523
v -0.347117 2.058508 0.379564
v -0.058620 1.782510 0.190072
v -0.153580 2.075050 0.134766
v -0.103867 1.760782 0.152832
v -0.198827 2.053323 0.097525
v -0.252157 1.765967 0.434870
v -0.347117 2.058508 0.379564
v -0.297404 1.744240 0.397630
v -0.392364 2.036780 0.342323
v 0.005619 1.745730 0.238374
v -0.013373 1.804238 0.227313
v -0.039628 1.724002 0.201134
v -0.058620 1.782510 0.190072
v -0.187918 1.729187 0.483172
v -0.206910 1.787695 0.472111
v -0.233165 1.707459 0.445932
v -0.252157 1.765967 0.434870
v -0.108333 2.096778 0.172006
v -0.127325 2.155287 0.160945
v -0.153580 2.075050 0.134766
v -0.172572 2.133559 0.123704
v -0.301870 2.080236 0.416804
v -0.320862 2.138744 0.405743
v -0.347117 2.058508 0.379564
v -0.366109 2.117016 0.368502
v -0.013373 1.804238 0.227313
v 0.025334 1.807546 0.178353
v -0.058620 1.782510 0.190072
v -0.019913 1.785818 0.141113
v -0.108333 2.096778 0.172006
v -0.069626 2.100087 0.123046
v -0.153580 2.075050 0.134766
v -0.114873 2.078359 0.085806
v 0.006969 1.979821 0.414831
v -0.012023 2.038329 0.403769
v -0.174019 1.892909 0.265869
v -0.193011 1.951417 0.254807
v -0.031738 1.976512 0.463790
v -0.050730 2.035021 0.452729
v -0.212726 1.889601 0.314828
v -0.231718 1.948109 0.303767
v -0.215143 1.842194 0.271949
v -0.241551 1.910984 0.245986
v -0.218750 1.625000 0.187500
v -0.251725 1.651836 0.141688
v -0.265320 1.848634 0.311839
v -0.271904 1.919065 0.281186
v -0.271116 1.617455 0.220773
v -0.304091 1.644291 0.174961
vn -0.0000 -0.0000 -1.0000
vn -0.0000 -0.0000 1.0000
vn 0.7071 0.7071 -0.0000
vn -0.0000 1.0000 -0.0000
vn 1.0000 -0.0000 -0.0000
vn -0.0000 -1.0000 -0.0000
vn -1.0000 -0.0000 -0.0000
vn -0.0000 0.7071 -0.7071
vn 0.3039 -0.9361 0.1770
vn -0.3039 0.9361 -0.1770
vn 0.7240 0.3476 0.5958
vn -0.7240 -0.3476 -0.5958
vn -0.6193 -0.0529 0.7834
vn 0.6193 0.0529 -0.7834
vn 0.7240 0.3476 0.5959
vn -0.7240 -0.3476 -0.5959
vn 0.8682 0.1555 -0.4711
vn 0.8683 0.1555 -0.4711
vn -0.9894 -0.0309 0.1415
vn -0.9894 -0.0309 0.1416
vn 0.5680 -0.3064 0.7639
vn 0.5679 -0.3064 0.7639
vn -0.6747 0.3336 -0.6584
vn 0.5679 -0.3065 0.7639
vt 0.687500 0.500000
vt 0.687500 0.593750
vt 0.593750 0.500000
vt 0.500000 0.500000
vt 0.500000 0.593750
vt 0.500000 0.156250
vt 0.437500 0.250000
vt 0.437500 0.156250
vt 0.000000 0.250000
vt 0.062500 0.156250
vt 0.062500 0.250000
vt 1.000000 0.343750
vt 1.000000 0.500000
vt 0.750000 0.156250
vt 1.000000 0.250000
vt 0.843750 0.250000
vt 0.750000 0.000000
vt 1.000000 0.000000
vt 0.656250 0.250000
vt 0.500000 0.250000
vt 0.500000 0.000000
vt 0.000000 0.156250
vt 0.000000 0.000000
vt 0.000000 0.750000
vt 0.000000 0.500000
vt 0.968750 0.250000
vt 0.593750 0.343750
vt 0.593750 0.250000
vt 0.500000 0.750000
vt 0.968750 0.343750
vt 0.500000 0.343750
vt 0.484375 0.640625
vt 0.109375 0.546875
vt 0.484375 0.546875
vt 0.875000 0.953125
vt 0.468750 0.781250
vt 0.875000 0.781250
vt 0.406250 0.953125
vt 0.000000 0.781250
vt 0.406250 0.781250
vt 1.000000 0.953125
vt 0.875000 0.546875
vt 1.000000 0.546875
vt 0.750000 0.609375
vt 0.875000 0.609375
vt 0.718750 0.984375
vt 0.703125 0.968750
vt 0.718750 0.968750
vt 0.703125 0.984375
vt 0.687500 0.968750
vt 0.812500 0.968750
vt 0.796875 0.984375
vt 0.796875 0.968750
vt 0.609375 0.968750
vt 0.484375 0.984375
vt 0.484375 0.968750
vt 0.812500 0.984375
vt 0.640625 0.968750
vt 0.828125 0.968750
vt 0.656250 0.984375
vt 0.656250 0.968750
vt 0.734375 0.984375
vt 0.734375 0.968750
vt 0.531250 0.984375
vt 0.531250 0.968750
vt 0.593750 0.968750
vt 0.578125 0.984375
vt 0.578125 0.968750
vt 0.500000 0.984375
vt 0.500000 0.968750
vt 0.562500 0.968750
vt 0.640625 0.984375
vt 0.750000 0.968750
vt 0.750000 0.984375
vt 0.781250 0.984375
vt 0.781250 0.968750
vt 0.765625 0.968750
vt 0.765625 0.984375
vt 0.671875 0.984375
vt 0.671875 0.968750
vt 0.546875 0.984375
vt 0.468750 0.984375
vt 0.562500 0.984375
vt 0.546875 0.968750
vt 0.515625 0.984375
vt 0.625000 0.734375
vt 0.609375 0.750000
vt 0.609375 0.734375
vt 0.625000 0.750000
vt 0.609375 0.671875
vt 0.625000 0.671875
vt 0.593750 0.750000
vt 0.515625 0.671875
vt 0.593750 0.671875
vt 0.515625 0.750000
vt 0.515625 0.656250
vt 0.593750 0.640625
vt 0.593750 0.656250
vt 0.531250 0.640625
vt 0.531250 0.656250
vt 0.656250 0.671875
vt 0.640625 0.750000
vt 0.640625 0.671875
vt 0.656250 0.750000
vt 0.109375 0.640625
vt 0.468750 0.953125
vt 0.000000 0.953125
vt 0.750000 0.781250
vt 0.828125 0.984375
vt 0.609375 0.984375
vt 0.593750 0.984375
vt 0.515625 0.968750
vt 0.515625 0.640625
s 1
usemtl m_6c18ac7e-ace4-9812-a59f-febfb7abab10
f 1/1/1 2/2/1 3/3/1
f 4/4/2 5/3/2 6/5/2
f 7/6/3 6/7/3 5/8/3
f 8/9/3 3/10/3 2/11/3
f 9/4/4 10/12/4 11/13/4
f 7/14/1 11/15/1 10/16/1
f 12/17/1 13/18/1 11/15/1
f 8/19/2 14/17/2 15/14/2
f 14/17/2 9/20/2 16/21/2
f 12/21/5 15/22/5 14/23/5
f 13/4/6 14/24/6 16/25/6
f 16/20/7 11/25/7 13/9/7
f 5/26/4 1/27/4 3/28/4
f 7/6/3 10/20/3 6/7/3
f 8/9/3 15/22/3 3/10/3
f 7/14/1 12/17/1 11/15/1
f 8/19/2 9/20/2 14/17/2
f 12/21/5 7/6/5 15/22/5
f 13/4/6 12/29/6 14/24/6
f 16/20/7 9/4/7 11/25/7
f 5/26/4 4/30/4 1/27/4
f 9/4/4 8/31/4 10/12/4
f 6/32/5 1/33/5 4/34/5
f 18/35/5 19/36/5 20/37/5
f 21/38/7 24/39/7 23/40/7
f 18/41/4 21/42/4 17/43/4
f 17/37/2 23/44/2 19/45/2
f 22/37/1 20/44/1 24/45/1
f 27/46/6 46/47/6 28/48/6
f 25/49/2 45/50/2 27/47/2
f 46/51/1 26/52/1 28/53/1
f 50/54/4 44/55/4 40/56/4
f 49/57/5 33/58/5 34/59/5
f 48/57/7 65/58/7 36/59/7
f 49/51/4 48/60/4 47/61/4
f 35/62/8 34/48/8 65/63/8
f 41/54/7 44/64/7 43/65/7
f 38/66/4 41/67/4 37/68/4
f 37/68/2 43/69/2 39/70/2
f 42/71/1 40/55/1 44/56/1
f 29/63/7 48/60/7 36/58/7
f 45/51/2 36/62/2 33/63/2
f 47/61/5 45/46/5 33/72/5
f 48/73/1 46/57/1 47/74/1
f 30/46/4 25/73/4 26/74/4
f 49/69/4 31/65/4 32/64/4
f 34/66/7 32/67/7 64/71/7
f 35/61/7 58/49/7 65/72/7
f 51/51/2 35/75/2 49/76/2
f 65/77/1 52/57/1 34/78/1
f 52/47/5 49/79/5 34/61/5
f 52/47/3 57/46/3 51/49/3
f 54/74/4 57/48/4 53/73/4
f 55/78/6 52/73/6 56/77/6
f 53/79/2 51/61/2 55/80/2
f 52/51/1 54/52/1 56/53/1
f 32/56/7 63/81/7 64/82/7
f 60/83/4 62/84/4 59/71/4
f 59/84/2 32/55/2 31/56/2
f 63/71/1 61/55/1 64/56/1
f 66/70/2 39/85/2 43/69/2
f 69/86/9 70/87/9 71/88/9
f 74/88/10 73/89/10 75/87/10
f 68/90/11 73/89/11 72/87/11
f 71/90/12 74/89/12 75/87/12
f 70/90/13 72/89/13 74/87/13
f 75/90/14 69/89/14 71/87/14
f 77/91/14 78/87/14 79/90/14
f 82/90/13 81/89/13 83/87/13
f 77/92/11 80/93/11 76/94/11
f 78/94/12 83/95/12 79/93/12
f 76/91/9 82/87/9 78/90/9
f 81/91/10 79/87/10 83/90/10
f 87/88/14 84/89/14 86/87/14
f 88/86/13 91/87/13 90/88/13
f 85/91/11 88/87/11 84/90/11
f 86/91/12 91/87/12 87/90/12
f 84/91/9 90/87/9 86/90/9
f 89/91/10 87/87/10 91/90/10
f 95/88/14 92/89/14 94/87/14
f 96/86/13 99/87/13 98/88/13
f 92/90/15 97/89/11 96/87/11
f 94/91/16 99/87/12 95/90/16
f 94/90/9 96/89/9 98/87/9
f 97/91/10 95/87/10 99/90/10
f 103/88/9 100/89/9 102/87/9
f 104/86/10 107/87/10 106/88/10
f 101/91/11 104/87/11 100/90/11
f 103/90/12 106/89/12 107/87/12
f 100/91/13 106/87/13 102/90/13
f 105/91/14 103/87/14 107/90/14
f 109/96/14 110/97/14 111/98/14
f 112/96/13 115/97/13 114/98/13
f 109/96/11 112/99/11 108/100/11
f 108/96/9 114/97/9 110/98/9
f 113/96/10 111/97/10 115/98/10
f 119/101/17 116/102/18 118/103/17
f 120/104/19 123/103/20 122/101/19
f 116/104/21 122/103/22 118/101/22
f 123/101/23 117/102/23 119/103/23
f 6/32/5 2/105/5 1/33/5
f 18/35/5 17/106/5 19/36/5
f 21/38/7 22/107/7 24/39/7
f 18/41/4 22/35/4 21/42/4
f 17/37/2 21/108/2 23/44/2
f 22/37/1 18/108/1 20/44/1
f 27/46/6 45/49/6 46/47/6
f 25/49/2 29/79/2 45/50/2
f 46/51/1 30/109/1 26/52/1
f 50/54/4 49/110/4 44/55/4
f 49/57/5 47/60/5 33/58/5
f 48/57/7 35/60/7 65/58/7
f 49/51/4 35/57/4 48/60/4
f 35/62/8 49/46/8 34/48/8
f 41/54/7 42/110/7 44/64/7
f 38/66/4 42/111/4 41/67/4
f 37/68/2 41/67/2 43/69/2
f 42/71/1 38/83/1 40/55/1
f 29/63/7 30/62/7 48/60/7
f 45/51/2 29/109/2 36/62/2
f 47/61/5 46/48/5 45/46/5
f 48/73/1 30/59/1 46/57/1
f 30/46/4 29/48/4 25/73/4
f 49/69/4 50/70/4 31/65/4
f 34/66/7 49/110/7 32/67/7
f 35/61/7 57/47/7 58/49/7
f 51/51/2 57/109/2 35/75/2
f 65/77/1 58/59/1 52/57/1
f 52/47/5 51/49/5 49/79/5
f 52/47/3 58/48/3 57/46/3
f 54/74/4 58/46/4 57/48/4
f 55/78/6 51/74/6 52/73/6
f 53/79/2 57/72/2 51/61/2
f 52/51/1 58/109/1 54/52/1
f 32/56/7 62/84/7 63/81/7
f 60/83/4 63/81/4 62/84/4
f 59/84/2 62/81/2 32/55/2
f 63/71/1 60/83/1 61/55/1
f 66/70/2 67/112/2 39/85/2
f 69/86/9 68/89/9 70/87/9
f 74/88/10 72/86/10 73/89/10
f 68/90/11 69/91/11 73/89/11
f 71/90/12 70/91/12 74/89/12
f 70/90/13 68/91/13 72/89/13
f 75/90/14 73/91/14 69/89/14
f 77/91/14 76/89/14 78/87/14
f 82/90/13 80/91/13 81/89/13
f 77/92/11 81/95/11 80/93/11
f 78/94/12 82/92/12 83/95/12
f 76/91/9 80/89/9 82/87/9
f 81/91/10 77/89/10 79/87/10
f 87/88/14 85/86/14 84/89/14
f 88/86/13 89/89/13 91/87/13
f 85/91/11 89/89/11 88/87/11
f 86/91/12 90/89/16 91/87/12
f 84/91/9 88/89/9 90/87/9
f 89/91/10 85/89/10 87/87/10
f 95/88/14 93/86/14 92/89/14
f 96/86/13 97/89/13 99/87/13
f 92/90/15 93/91/15 97/89/11
f 94/91/16 98/89/12 99/87/12
f 94/90/9 92/91/9 96/89/9
f 97/91/10 93/89/10 95/87/10
f 103/88/9 101/86/9 100/89/9
f 104/86/10 105/89/10 107/87/10
f 101/91/11 105/89/11 104/87/11
f 103/90/12 102/91/12 106/89/12
f 100/91/13 104/89/13 106/87/13
f 105/91/14 101/89/14 103/87/14
f 109/96/14 108/113/14 110/97/14
f 112/96/13 113/113/13 115/97/13
f 109/96/11 113/113/11 112/99/11
f 108/96/9 112/113/9 114/97/9
f 113/96/10 109/113/10 111/97/10
f 119/101/17 117/104/18 116/102/18
f 120/104/19 121/102/19 123/103/20
f 116/104/21 120/102/24 122/103/22
f 123/101/23 121/104/23 117/102/23
