# Blender 4.5.0
# www.blender.org
mtllib dish_controller_tri.mtl
o Base
v 0.125000 0.625000 0.250000
v 0.125000 1.000000 0.250000
v 0.500000 0.625000 0.250000
v 0.125000 0.625000 -1.250000
v 0.500000 0.625000 -1.250000
v 0.125000 1.000000 -1.250000
v 0.500000 0.625000 -1.500000
v 0.125000 1.000000 0.500000
v -0.500000 1.000000 0.500000
v 0.125000 1.000000 -1.500000
v -0.500000 1.000000 -1.500000
v 0.500000 -0.000000 -1.500000
v -0.500000 -0.000000 -1.500000
v 0.500000 0.000000 0.500000
v 0.500000 0.625000 0.500000
v -0.500000 0.000000 0.500000
v 0.125000 1.687500 0.312500
v 0.125000 1.687500 -1.312500
v 0.125000 1.000000 0.312500
v 0.125000 1.000000 -1.312500
v -0.375000 1.687500 0.312500
v -0.375000 1.687500 -1.312500
v -0.375000 1.000000 0.312500
v -0.375000 1.000000 -1.312500
v -0.375000 1.375000 -0.312500
v -0.375000 1.375000 -0.375000
v -0.375000 1.312500 -0.312500
v -0.375000 1.312500 -0.375000
v -0.500000 1.375000 -0.312500
v -0.500000 1.375000 -0.375000
v -0.375000 1.062500 -1.125000
v -0.437500 1.062500 -1.125000
v -0.437500 1.000000 -0.312500
v -0.437500 1.000000 -1.062500
v -0.500000 1.062500 -1.000000
v -0.500000 1.000000 -0.312500
v -0.375000 1.375000 -0.437500
v -0.375000 1.375000 -0.500000
v -0.375000 1.062500 -0.437500
v -0.375000 1.062500 -0.500000
v -0.437500 1.375000 -0.437500
v -0.437500 1.375000 -0.500000
v -0.437500 1.062500 -0.437500
v -0.437500 1.062500 -0.500000
v -0.437500 1.312500 -0.312500
v -0.437500 1.312500 -0.375000
v -0.437500 1.062500 -0.375000
v -0.500000 1.062500 -0.375000
v -0.437500 1.062500 -1.000000
v -0.375000 1.062500 -1.000000
v -0.437500 1.187500 -1.000000
v -0.437500 1.187500 -1.062500
v -0.375000 1.250000 -1.000000
v -0.375000 1.250000 -1.062500
v -0.375000 1.187500 -1.000000
v -0.375000 1.187500 -1.062500
v -0.500000 1.250000 -1.000000
v -0.500000 1.250000 -1.062500
v -0.375000 1.312500 -1.125000
v -0.375000 1.312500 -1.187500
v -0.375000 1.000000 -1.187500
v -0.437500 1.312500 -1.125000
v -0.437500 1.312500 -1.187500
v -0.437500 1.000000 -1.187500
v -0.500000 1.000000 -1.062500
v -0.437500 1.000000 -0.437500
v -0.375000 1.000000 -0.437500
vn -0.0000 -0.0000 -1.0000
vn -0.0000 -0.0000 1.0000
vn 0.7071 0.7071 -0.0000
vn -0.0000 1.0000 -0.0000
vn 1.0000 -0.0000 -0.0000
vn -0.0000 -1.0000 -0.0000
vn -1.0000 -0.0000 -0.0000
vn -0.0000 0.7071 -0.7071
vt 0.687500 0.500000
vt 0.687500 0.593750
vt 0.593750 0.500000
vt 0.500000 0.500000
vt 0.500000 0.593750
vt 0.500000 0.156250
vt 0.437500 0.250000
vt 0.437500 0.156250
vt 0.000000 0.250000
vt 0.062500 0.156250
vt 0.062500 0.250000
vt 1.000000 0.343750
vt 1.000000 0.500000
vt 0.750000 0.156250
vt 1.000000 0.250000
vt 0.843750 0.250000
vt 0.750000 0.000000
vt 1.000000 0.000000
vt 0.656250 0.250000
vt 0.500000 0.250000
vt 0.500000 0.000000
vt 0.000000 0.156250
vt 0.000000 0.000000
vt 0.000000 0.750000
vt 0.000000 0.500000
vt 0.968750 0.250000
vt 0.593750 0.343750
vt 0.593750 0.250000
vt 0.500000 0.750000
vt 0.968750 0.343750
vt 0.500000 0.343750
vt 0.484375 0.640625
vt 0.109375 0.546875
vt 0.484375 0.546875
vt 0.875000 0.953125
vt 0.468750 0.781250
vt 0.875000 0.781250
vt 0.406250 0.953125
vt 0.000000 0.781250
vt 0.406250 0.781250
vt 1.000000 0.953125
vt 0.875000 0.546875
vt 1.000000 0.546875
vt 0.750000 0.609375
vt 0.875000 0.609375
vt 0.718750 0.984375
vt 0.703125 0.968750
vt 0.718750 0.968750
vt 0.703125 0.984375
vt 0.687500 0.968750
vt 0.812500 0.968750
vt 0.796875 0.984375
vt 0.796875 0.968750
vt 0.609375 0.968750
vt 0.484375 0.984375
vt 0.484375 0.968750
vt 0.812500 0.984375
vt 0.640625 0.968750
vt 0.828125 0.968750
vt 0.656250 0.984375
vt 0.656250 0.968750
vt 0.734375 0.984375
vt 0.734375 0.968750
vt 0.531250 0.984375
vt 0.531250 0.968750
vt 0.593750 0.968750
vt 0.578125 0.984375
vt 0.578125 0.968750
vt 0.500000 0.984375
vt 0.500000 0.968750
vt 0.562500 0.968750
vt 0.640625 0.984375
vt 0.750000 0.968750
vt 0.750000 0.984375
vt 0.781250 0.984375
vt 0.781250 0.968750
vt 0.765625 0.968750
vt 0.765625 0.984375
vt 0.671875 0.984375
vt 0.671875 0.968750
vt 0.546875 0.984375
vt 0.468750 0.984375
vt 0.562500 0.984375
vt 0.546875 0.968750
vt 0.515625 0.984375
vt 0.468750 0.953125
vt 0.000000 0.953125
vt 0.750000 0.781250
vt 0.828125 0.984375
vt 0.609375 0.984375
vt 0.593750 0.984375
vt 0.515625 0.968750
vt 0.109375 0.640625
s 1
usemtl m_6c18ac7e-ace4-9812-a59f-febfb7abab10
f 1/1/1 2/2/1 3/3/1
f 4/4/2 5/3/2 6/5/2
f 7/6/3 6/7/3 5/8/3
f 8/9/3 3/10/3 2/11/3
f 9/4/4 10/12/4 11/13/4
f 7/14/1 11/15/1 10/16/1
f 12/17/1 13/18/1 11/15/1
f 8/19/2 14/17/2 15/14/2
f 14/17/2 9/20/2 16/21/2
f 12/21/5 15/22/5 14/23/5
f 13/4/6 14/24/6 16/25/6
f 16/20/7 11/25/7 13/9/7
f 5/26/4 1/27/4 3/28/4
f 7/6/3 10/20/3 6/7/3
f 8/9/3 15/22/3 3/10/3
f 7/14/1 12/17/1 11/15/1
f 8/19/2 9/20/2 14/17/2
f 12/21/5 7/6/5 15/22/5
f 13/4/6 12/29/6 14/24/6
f 16/20/7 9/4/7 11/25/7
f 5/26/4 4/30/4 1/27/4
f 9/4/4 8/31/4 10/12/4
f 6/32/5 1/33/5 4/34/5
f 18/35/5 19/36/5 20/37/5
f 21/38/7 24/39/7 23/40/7
f 18/41/4 21/42/4 17/43/4
f 17/37/2 23/44/2 19/45/2
f 22/37/1 20/44/1 24/45/1
f 27/46/6 46/47/6 28/48/6
f 25/49/2 45/50/2 27/47/2
f 46/51/1 26/52/1 28/53/1
f 50/54/4 44/55/4 40/56/4
f 49/57/5 33/58/5 34/59/5
f 48/57/7 65/58/7 36/59/7
f 49/51/4 48/60/4 47/61/4
f 35/62/8 34/48/8 65/63/8
f 41/54/7 44/64/7 43/65/7
f 38/66/4 41/67/4 37/68/4
f 37/68/2 43/69/2 39/70/2
f 42/71/1 40/55/1 44/56/1
f 29/63/7 48/60/7 36/58/7
f 45/51/2 36/62/2 33/63/2
f 47/61/5 45/46/5 33/72/5
f 48/73/1 46/57/1 47/74/1
f 30/46/4 25/73/4 26/74/4
f 49/69/4 31/65/4 32/64/4
f 34/66/7 32/67/7 64/71/7
f 35/61/7 58/49/7 65/72/7
f 51/51/2 35/75/2 49/76/2
f 65/77/1 52/57/1 34/78/1
f 52/47/5 49/79/5 34/61/5
f 52/47/3 57/46/3 51/49/3
f 54/74/4 57/48/4 53/73/4
f 55/78/6 52/73/6 56/77/6
f 53/79/2 51/61/2 55/80/2
f 52/51/1 54/52/1 56/53/1
f 32/56/7 63/81/7 64/82/7
f 60/83/4 62/84/4 59/71/4
f 59/84/2 32/55/2 31/56/2
f 63/71/1 61/55/1 64/56/1
f 66/70/2 39/85/2 43/69/2
f 18/35/5 17/86/5 19/36/5
f 21/38/7 22/87/7 24/39/7
f 18/41/4 22/35/4 21/42/4
f 17/37/2 21/88/2 23/44/2
f 22/37/1 18/88/1 20/44/1
f 27/46/6 45/49/6 46/47/6
f 25/49/2 29/79/2 45/50/2
f 46/51/1 30/89/1 26/52/1
f 50/54/4 49/90/4 44/55/4
f 49/57/5 47/60/5 33/58/5
f 48/57/7 35/60/7 65/58/7
f 49/51/4 35/57/4 48/60/4
f 35/62/8 49/46/8 34/48/8
f 41/54/7 42/90/7 44/64/7
f 38/66/4 42/91/4 41/67/4
f 37/68/2 41/67/2 43/69/2
f 42/71/1 38/83/1 40/55/1
f 29/63/7 30/62/7 48/60/7
f 45/51/2 29/89/2 36/62/2
f 47/61/5 46/48/5 45/46/5
f 48/73/1 30/59/1 46/57/1
f 30/46/4 29/48/4 25/73/4
f 49/69/4 50/70/4 31/65/4
f 34/66/7 49/90/7 32/67/7
f 35/61/7 57/47/7 58/49/7
f 51/51/2 57/89/2 35/75/2
f 65/77/1 58/59/1 52/57/1
f 52/47/5 51/49/5 49/79/5
f 52/47/3 58/48/3 57/46/3
f 54/74/4 58/46/4 57/48/4
f 55/78/6 51/74/6 52/73/6
f 53/79/2 57/72/2 51/61/2
f 52/51/1 58/89/1 54/52/1
f 32/56/7 62/84/7 63/81/7
f 60/83/4 63/81/4 62/84/4
f 59/84/2 62/81/2 32/55/2
f 63/71/1 60/83/1 61/55/1
f 66/70/2 67/92/2 39/85/2
f 6/32/5 2/93/5 1/33/5
