# Made By Osmo
o solar_panel
v -2.500000 0.613546 -0.500208
v -2.312500 0.500000 -0.250000
v -2.312500 0.500000 -0.375000
v -2.312500 0.125000 -0.250000
v -2.312500 0.125000 -0.375000
v -2.437500 0.500000 -0.250000
v -2.437500 0.500000 -0.375000
v -2.437500 0.125000 -0.250000
v -2.437500 0.125000 -0.375000
v -2.312500 0.750000 0.375000
v -2.312500 0.750000 0.250000
v -2.312500 0.125000 0.375000
v -2.312500 0.125000 0.250000
v -2.437500 0.750000 0.375000
v -2.437500 0.750000 0.250000
v -2.437500 0.125000 0.375000
v -2.437500 0.125000 0.250000
v -0.562500 0.500000 -0.250000
v -0.562500 0.500000 -0.375000
v -0.562500 0.125000 -0.250000
v -0.562500 0.125000 -0.375000
v -0.687500 0.500000 -0.250000
v -0.687500 0.500000 -0.375000
v -0.687500 0.125000 -0.250000
v -0.687500 0.125000 -0.375000
v -0.562500 0.750000 0.375000
v -0.562500 0.750000 0.250000
v -0.562500 0.125000 0.375000
v -0.562500 0.125000 0.250000
v -0.687500 0.750000 0.375000
v -0.687500 0.750000 0.250000
v -0.687500 0.125000 0.375000
v -0.687500 0.125000 0.250000
v -0.500000 0.125000 0.437500
v -0.500000 0.125000 -0.437500
v -0.500000 0.000000 0.437500
v -0.500000 -0.000000 -0.437500
v -2.500000 0.125000 0.437500
v -2.500000 0.125000 -0.437500
v -2.500000 0.000000 0.437500
v -2.500000 -0.000000 -0.437500
v -2.500000 0.996229 0.423671
v -2.500000 0.440319 -0.428455
v -2.500000 0.823003 0.495424
v -0.500000 0.613546 -0.500208
v -0.500000 0.996229 0.423671
v -0.500000 0.440319 -0.428455
v -0.500000 0.823003 0.495424
v -2.375000 0.661382 -0.384723
v -2.375000 0.948394 0.308186
v -0.625000 0.661382 -0.384723
v -0.625000 0.948394 0.308186
v -2.375000 0.603639 -0.360806
v -2.375000 0.890652 0.332104
v -0.625000 0.603639 -0.360806
v -0.625000 0.890652 0.332104
v -2.437500 0.406494 -0.346795
v -0.562500 0.406494 -0.346795
v -2.437500 0.741342 0.461600
v -0.562500 0.741342 0.461600
v 0.500000 0.613546 -0.500208
v 0.687500 0.500000 -0.250000
v 0.687500 0.500000 -0.375000
v 0.687500 0.125000 -0.250000
v 0.687500 0.125000 -0.375000
v 0.562500 0.500000 -0.250000
v 0.562500 0.500000 -0.375000
v 0.562500 0.125000 -0.250000
v 0.562500 0.125000 -0.375000
v 0.687500 0.750000 0.375000
v 0.687500 0.750000 0.250000
v 0.687500 0.125000 0.375000
v 0.687500 0.125000 0.250000
v 0.562500 0.750000 0.375000
v 0.562500 0.750000 0.250000
v 0.562500 0.125000 0.375000
v 0.562500 0.125000 0.250000
v 2.437500 0.500000 -0.250000
v 2.437500 0.500000 -0.375000
v 2.437500 0.125000 -0.250000
v 2.437500 0.125000 -0.375000
v 2.312500 0.500000 -0.250000
v 2.312500 0.500000 -0.375000
v 2.312500 0.125000 -0.250000
v 2.312500 0.125000 -0.375000
v 2.437500 0.750000 0.375000
v 2.437500 0.750000 0.250000
v 2.437500 0.125000 0.375000
v 2.437500 0.125000 0.250000
v 2.312500 0.750000 0.375000
v 2.312500 0.750000 0.250000
v 2.312500 0.125000 0.375000
v 2.312500 0.125000 0.250000
v 2.500000 0.125000 0.437500
v 2.500000 0.125000 -0.437500
v 2.500000 0.000000 0.437500
v 2.500000 -0.000000 -0.437500
v 0.500000 0.125000 0.437500
v 0.500000 0.125000 -0.437500
v 0.500000 0.000000 0.437500
v 0.500000 -0.000000 -0.437500
v 0.500000 0.996229 0.423671
v 0.500000 0.440319 -0.428455
v 0.500000 0.823003 0.495424
v 2.500000 0.613546 -0.500208
v 2.500000 0.996229 0.423671
v 2.500000 0.440319 -0.428455
v 2.500000 0.823003 0.495424
v 0.625000 0.661382 -0.384723
v 0.625000 0.948394 0.308186
v 2.375000 0.661382 -0.384723
v 2.375000 0.948394 0.308186
v 0.625000 0.603639 -0.360806
v 0.625000 0.890652 0.332104
v 2.375000 0.603639 -0.360806
v 2.375000 0.890652 0.332104
v 0.562500 0.406494 -0.346795
v 2.437500 0.406494 -0.346795
v 0.562500 0.741342 0.461600
v 2.437500 0.741342 0.461600
v 1.625000 0.625000 0.125000
v 1.625000 0.625000 -0.125000
v 1.375000 0.375000 0.125000
v 1.375000 0.375000 -0.125000
v -1.625000 0.625000 0.125000
v -1.625000 0.625000 -0.125000
v -1.375000 0.375000 0.125000
v -1.375000 0.375000 -0.125000
v 0.312500 0.812500 0.312500
v 0.312500 0.812500 -0.312500
v 0.312500 0.187500 0.312500
v 0.312500 0.187500 -0.312500
v -0.312500 0.812500 0.312500
v -0.312500 0.812500 -0.312500
v -0.312500 0.187500 0.312500
v -0.312500 0.187500 -0.312500
v -0.375000 0.750000 0.250000
v -0.375000 0.750000 -0.250000
v -0.375000 0.250000 0.250000
v -0.375000 0.250000 -0.250000
v 0.375000 0.750000 0.250000
v 0.375000 0.250000 0.250000
v 0.375000 0.750000 -0.250000
v 0.375000 0.250000 -0.250000
v 0.125000 0.625000 -0.375000
v 0.125000 0.375000 -0.375000
v 0.125000 0.625000 -0.125000
v 0.125000 0.375000 -0.125000
v -0.125000 0.625000 -0.375000
v -0.125000 0.375000 -0.375000
v -0.125000 0.625000 -0.125000
v -0.125000 0.375000 -0.125000
v 0.187500 0.687500 -0.500000
v 0.187500 0.312500 -0.500000
v 0.187500 0.687500 -0.375000
v 0.187500 0.312500 -0.375000
v -0.187500 0.687500 -0.500000
v -0.187500 0.312500 -0.500000
v -0.187500 0.687500 -0.375000
v -0.187500 0.312500 -0.375000
v 0.125000 0.125000 -0.125000
v 0.125000 0.125000 0.125000
v 0.125000 0.375000 -0.125000
v 0.125000 0.375000 0.125000
v -0.125000 0.125000 -0.125000
v -0.125000 0.125000 0.125000
v -0.125000 0.375000 -0.125000
v -0.125000 0.375000 0.125000
v 0.187500 -0.000000 -0.187500
v 0.187500 0.000000 0.187500
v 0.187500 0.125000 -0.187500
v 0.187500 0.125000 0.187500
v -0.187500 -0.000000 -0.187500
v -0.187500 0.000000 0.187500
v -0.187500 0.125000 -0.187500
v -0.187500 0.125000 0.187500
v 0.125000 0.375000 0.375000
v 0.125000 0.625000 0.375000
v 0.125000 0.375000 0.125000
v 0.125000 0.625000 0.125000
v -0.125000 0.375000 0.375000
v -0.125000 0.625000 0.375000
v -0.125000 0.375000 0.125000
v -0.125000 0.625000 0.125000
v 0.187500 0.312500 0.500000
v 0.187500 0.687500 0.500000
v 0.187500 0.312500 0.375000
v 0.187500 0.687500 0.375000
v -0.187500 0.312500 0.500000
v -0.187500 0.687500 0.500000
v -0.187500 0.312500 0.375000
v -0.187500 0.687500 0.375000
v 0.125000 0.875000 0.125000
v 0.125000 0.875000 -0.125000
v 0.125000 0.625000 0.125000
v 0.125000 0.625000 -0.125000
v -0.125000 0.875000 0.125000
v -0.125000 0.875000 -0.125000
v -0.125000 0.625000 0.125000
v -0.125000 0.625000 -0.125000
v 0.187500 1.000000 0.187500
v 0.187500 1.000000 -0.187500
v 0.187500 0.875000 0.187500
v 0.187500 0.875000 -0.187500
v -0.187500 1.000000 0.187500
v -0.187500 1.000000 -0.187500
v -0.187500 0.875000 0.187500
v -0.187500 0.875000 -0.187500
vn 1.0000 -0.0000 -0.0000
vn -1.0000 -0.0000 -0.0000
vn -0.0000 -0.0000 1.0000
vn -0.0000 -0.0000 -1.0000
vn -0.0000 1.0000 -0.0000
vn -0.0000 -1.0000 -0.0000
vn -0.0000 0.9239 -0.3827
vn -0.0000 -0.9239 0.3827
vn -0.0000 -0.3827 -0.9239
vn -0.0000 0.3827 0.9239
vn -0.7071 -0.6533 0.2706
vn -0.0000 -0.9239 -0.3827
vn 0.7071 -0.6533 0.2706
vn -0.0000 -0.3827 0.9239
vn 0.7071 -0.7071 -0.0000
vn -0.7071 -0.7071 -0.0000
vn -0.7071 -0.0000 0.7071
vn -0.7071 0.7071 -0.0000
vn -0.7071 -0.0000 -0.7071
vn 0.7071 0.7071 -0.0000
vn 0.7071 -0.0000 0.7071
vn 0.7071 -0.0000 -0.7071
vt 0.052632 0.317073
vt 0.052632 0.292683
vt 0.131579 0.292683
vt 0.131579 0.317073
vt 0.131579 0.268293
vt 0.052632 0.268293
vt 0.052632 0.243902
vt 0.131579 0.243902
vt 0.052632 0.341463
vt 0.131579 0.341463
vt 0.000000 0.317073
vt 0.000000 0.292683
vt 0.000000 0.268293
vt 0.000000 0.243902
vt 0.000000 0.341463
vt 0.552632 0.804878
vt 0.552632 0.975610
vt 0.526316 0.975610
vt 0.526316 0.804878
vt 1.000000 0.975610
vt 0.973684 0.975610
vt 0.973684 0.804878
vt 1.000000 0.804878
vt 0.973684 0.609756
vt 0.973684 0.780488
vt 0.552632 0.780488
vt 0.552632 0.609756
vt 0.552632 1.000000
vt 0.973684 1.000000
vt 0.473684 0.951219
vt 0.473684 0.756098
vt 0.513158 0.756098
vt 0.513158 0.951219
vt 0.013158 0.756098
vt 0.052632 0.756098
vt 0.052632 0.951219
vt 0.013158 0.951219
vt 0.078947 0.780488
vt 0.447368 0.780488
vt 0.447368 0.926829
vt 0.078947 0.926829
vt 0.460526 0.536585
vt 0.460526 0.707317
vt 0.065789 0.707317
vt 0.065789 0.536585
vt 0.473684 0.719512
vt 0.052632 0.719512
vt 0.473684 0.987805
vt 0.052632 0.987805
vt 0.078947 0.768293
vt 0.447368 0.768293
vt 0.460526 0.780488
vt 0.460526 0.926829
vt 0.447368 0.939024
vt 0.078947 0.939024
vt 0.065789 0.926829
vt 0.065789 0.780488
vt 0.526316 0.768293
vt 0.526316 0.939024
vt 0.000000 0.939024
vt 0.000000 0.768293
vt 0.460526 1.000000
vt 0.065789 1.000000
vt 0.131579 0.390244
vt 0.184211 0.341463
vt 0.184211 0.390244
vt 0.763158 0.341463
vt 0.815789 0.341463
vt 0.815789 0.390244
vt 0.763158 0.390244
vt 0.815789 0.487805
vt 0.131579 0.487805
vt 0.131579 0.439024
vt 0.815789 0.439024
vt 0.184211 0.536585
vt 0.763158 0.536585
vt 0.144737 0.097561
vt 0.144737 0.000000
vt 0.250000 0.000000
vt 0.250000 0.097561
vt 0.250000 0.341463
vt 0.144737 0.341463
vt 0.144737 0.243902
vt 0.250000 0.243902
vt 0.000000 0.231707
vt 0.000000 0.109756
vt 0.131579 0.109756
vt 0.131579 0.231707
vt 0.263158 0.109756
vt 0.394737 0.109756
vt 0.394737 0.231707
vt 0.263158 0.231707
vt 0.526316 0.109756
vt 0.526316 0.231707
vt 0.513158 0.243902
vt 0.407895 0.243902
vt 0.118421 0.243902
vt 0.013158 0.243902
vt 0.381579 0.243902
vt 0.276316 0.243902
vt 0.013158 0.097561
vt 0.118421 0.097561
vt 0.407895 0.097561
vt 0.513158 0.097561
vt 0.276316 0.097561
vt 0.381579 0.097561
vt 0.578947 0.597561
vt 0.526316 0.597561
vt 0.526316 0.548781
vt 0.578947 0.548781
vt 0.684211 0.548781
vt 0.684211 0.597561
vt 0.631579 0.597561
vt 0.631579 0.548781
vt 0.473684 0.597561
vt 0.473684 0.548781
vt 0.026316 0.439024
vt 0.026316 0.512195
vt 0.000000 0.512195
vt 0.000000 0.439024
vt 0.131579 0.512195
vt 0.105263 0.512195
vt 0.105263 0.439024
vt 0.026316 0.414634
vt 0.026316 0.341463
vt 0.105263 0.341463
vt 0.105263 0.414634
vt 0.026316 0.536585
vt 0.105263 0.536585
s 1
usemtl m_f42186b9-8866-2a62-b38d-205ccafa23e8
f 3/1/1 2/2/1 4/3/1
f 3/1/1 4/3/1 5/4/1
f 8/5/2 6/6/2 7/7/2
f 8/5/2 7/7/2 9/8/2
f 4/3/3 2/2/3 6/6/3
f 4/3/3 6/6/3 8/5/3
f 7/9/4 3/1/4 5/4/4
f 7/9/4 5/4/4 9/10/4
f 11/11/1 10/12/1 12/3/1
f 11/11/1 12/3/1 13/4/1
f 16/5/2 14/13/2 15/14/2
f 16/5/2 15/14/2 17/8/2
f 12/3/3 10/12/3 14/13/3
f 12/3/3 14/13/3 16/5/3
f 15/15/4 11/11/4 13/4/4
f 15/15/4 13/4/4 17/10/4
f 19/1/1 18/2/1 20/3/1
f 19/1/1 20/3/1 21/4/1
f 24/5/2 22/6/2 23/7/2
f 24/5/2 23/7/2 25/8/2
f 20/3/3 18/2/3 22/6/3
f 20/3/3 22/6/3 24/5/3
f 23/9/4 19/1/4 21/4/4
f 23/9/4 21/4/4 25/10/4
f 27/11/1 26/12/1 28/3/1
f 27/11/1 28/3/1 29/4/1
f 32/5/2 30/13/2 31/14/2
f 32/5/2 31/14/2 33/8/2
f 28/3/3 26/12/3 30/13/3
f 28/3/3 30/13/3 32/5/3
f 31/15/4 27/11/4 29/4/4
f 31/15/4 29/4/4 33/10/4
f 35/16/1 34/17/1 36/18/1
f 35/16/1 36/18/1 37/19/1
f 40/20/2 38/21/2 39/22/2
f 40/20/2 39/22/2 41/23/2
f 38/21/5 34/17/5 35/16/5
f 38/21/5 35/16/5 39/22/5
f 37/24/6 36/25/6 40/26/6
f 37/24/6 40/26/6 41/27/6
f 36/28/3 34/17/3 38/21/3
f 36/28/3 38/21/3 40/29/3
f 39/22/4 35/16/4 37/26/4
f 39/22/4 37/26/4 41/25/4
f 42/30/2 1/31/2 43/32/2
f 42/30/2 43/32/2 44/33/2
f 47/34/1 45/35/1 46/36/1
f 47/34/1 46/36/1 48/37/1
f 55/38/7 53/39/7 54/40/7
f 55/38/7 54/40/7 56/41/7
f 59/42/8 57/43/8 58/44/8
f 59/42/8 58/44/8 60/45/8
f 43/46/9 1/31/9 45/35/9
f 43/46/9 45/35/9 47/47/9
f 46/36/10 42/30/10 44/48/10
f 46/36/10 44/48/10 48/49/10
f 49/39/7 51/38/7 45/35/7
f 49/39/7 45/35/7 1/31/7
f 50/40/7 49/39/7 1/31/7
f 50/40/7 1/31/7 42/30/7
f 52/41/7 50/40/7 42/30/7
f 52/41/7 42/30/7 46/36/7
f 51/38/7 52/41/7 46/36/7
f 51/38/7 46/36/7 45/35/7
f 53/39/10 55/38/10 51/50/10
f 53/39/10 51/50/10 49/51/10
f 54/40/1 53/39/1 49/52/1
f 54/40/1 49/52/1 50/53/1
f 56/41/9 54/40/9 50/54/9
f 56/41/9 50/54/9 52/55/9
f 55/38/2 56/41/2 52/56/2
f 55/38/2 52/56/2 51/57/2
f 57/58/11 59/59/11 44/33/11
f 57/58/11 44/33/11 43/32/11
f 58/44/12 57/43/12 43/46/12
f 58/44/12 43/46/12 47/47/12
f 60/60/13 58/61/13 47/34/13
f 60/60/13 47/34/13 48/37/13
f 59/62/14 60/63/14 48/49/14
f 59/62/14 48/49/14 44/48/14
f 63/1/1 62/2/1 64/3/1
f 63/1/1 64/3/1 65/4/1
f 68/5/2 66/6/2 67/7/2
f 68/5/2 67/7/2 69/8/2
f 64/3/3 62/2/3 66/6/3
f 64/3/3 66/6/3 68/5/3
f 67/9/4 63/1/4 65/4/4
f 67/9/4 65/4/4 69/10/4
f 71/11/1 70/12/1 72/3/1
f 71/11/1 72/3/1 73/4/1
f 76/5/2 74/13/2 75/14/2
f 76/5/2 75/14/2 77/8/2
f 72/3/3 70/12/3 74/13/3
f 72/3/3 74/13/3 76/5/3
f 75/15/4 71/11/4 73/4/4
f 75/15/4 73/4/4 77/10/4
f 79/1/1 78/2/1 80/3/1
f 79/1/1 80/3/1 81/4/1
f 84/5/2 82/6/2 83/7/2
f 84/5/2 83/7/2 85/8/2
f 80/3/3 78/2/3 82/6/3
f 80/3/3 82/6/3 84/5/3
f 83/9/4 79/1/4 81/4/4
f 83/9/4 81/4/4 85/10/4
f 87/11/1 86/12/1 88/3/1
f 87/11/1 88/3/1 89/4/1
f 92/5/2 90/13/2 91/14/2
f 92/5/2 91/14/2 93/8/2
f 88/3/3 86/12/3 90/13/3
f 88/3/3 90/13/3 92/5/3
f 91/15/4 87/11/4 89/4/4
f 91/15/4 89/4/4 93/10/4
f 95/16/1 94/17/1 96/18/1
f 95/16/1 96/18/1 97/19/1
f 100/20/2 98/21/2 99/22/2
f 100/20/2 99/22/2 101/23/2
f 98/21/5 94/17/5 95/16/5
f 98/21/5 95/16/5 99/22/5
f 97/24/6 96/25/6 100/26/6
f 97/24/6 100/26/6 101/27/6
f 96/28/3 94/17/3 98/21/3
f 96/28/3 98/21/3 100/29/3
f 99/22/4 95/16/4 97/26/4
f 99/22/4 97/26/4 101/25/4
f 102/30/2 61/31/2 103/32/2
f 102/30/2 103/32/2 104/33/2
f 107/34/1 105/35/1 106/36/1
f 107/34/1 106/36/1 108/37/1
f 115/38/7 113/39/7 114/40/7
f 115/38/7 114/40/7 116/41/7
f 119/42/8 117/43/8 118/44/8
f 119/42/8 118/44/8 120/45/8
f 103/46/9 61/31/9 105/35/9
f 103/46/9 105/35/9 107/47/9
f 106/36/10 102/30/10 104/48/10
f 106/36/10 104/48/10 108/49/10
f 109/39/7 111/38/7 105/35/7
f 109/39/7 105/35/7 61/31/7
f 110/40/7 109/39/7 61/31/7
f 110/40/7 61/31/7 102/30/7
f 112/41/7 110/40/7 102/30/7
f 112/41/7 102/30/7 106/36/7
f 111/38/7 112/41/7 106/36/7
f 111/38/7 106/36/7 105/35/7
f 113/39/10 115/38/10 111/50/10
f 113/39/10 111/50/10 109/51/10
f 114/40/1 113/39/1 109/52/1
f 114/40/1 109/52/1 110/53/1
f 116/41/9 114/40/9 110/54/9
f 116/41/9 110/54/9 112/55/9
f 115/38/2 116/41/2 112/56/2
f 115/38/2 112/56/2 111/57/2
f 117/58/11 119/59/11 104/33/11
f 117/58/11 104/33/11 103/32/11
f 118/44/12 117/43/12 103/46/12
f 118/44/12 103/46/12 107/47/12
f 120/60/13 118/61/13 107/34/13
f 120/60/13 107/34/13 108/37/13
f 119/62/14 120/63/14 108/49/14
f 119/62/14 108/49/14 104/48/14
f 122/64/15 121/10/15 123/65/15
f 122/64/15 123/65/15 124/66/15
f 127/67/16 125/68/16 126/69/16
f 127/67/16 126/69/16 128/70/16
f 125/71/5 121/72/5 122/73/5
f 125/71/5 122/73/5 126/74/5
f 124/66/6 123/65/6 127/67/6
f 124/66/6 127/67/6 128/70/6
f 123/75/3 121/72/3 125/71/3
f 123/75/3 125/71/3 127/76/3
f 126/74/4 122/73/4 124/66/4
f 126/74/4 124/66/4 128/70/4
f 143/77/1 141/78/1 142/79/1
f 143/77/1 142/79/1 144/80/1
f 139/81/2 137/82/2 138/83/2
f 139/81/2 138/83/2 140/84/2
f 133/85/5 129/86/5 130/87/5
f 133/85/5 130/87/5 134/88/5
f 132/89/6 131/90/6 135/91/6
f 132/89/6 135/91/6 136/92/6
f 131/90/3 129/93/3 133/94/3
f 131/90/3 133/94/3 135/91/3
f 134/88/4 130/87/4 132/89/4
f 134/88/4 132/89/4 136/92/4
f 137/95/17 139/96/17 135/91/17
f 137/95/17 135/91/17 133/94/17
f 138/97/18 137/98/18 133/85/18
f 138/97/18 133/85/18 134/88/18
f 140/84/19 138/83/19 134/88/19
f 140/84/19 134/88/19 136/92/19
f 139/99/16 140/100/16 136/92/16
f 139/99/16 136/92/16 135/91/16
f 141/101/20 143/102/20 130/87/20
f 141/101/20 130/87/20 129/86/20
f 142/103/21 141/104/21 129/93/21
f 142/103/21 129/93/21 131/90/21
f 144/105/15 142/106/15 131/90/15
f 144/105/15 131/90/15 132/89/15
f 143/77/22 144/80/22 132/89/22
f 143/77/22 132/89/22 130/87/22
f 146/107/1 145/108/1 147/109/1
f 146/107/1 147/109/1 148/110/1
f 151/111/2 149/112/2 150/113/2
f 151/111/2 150/113/2 152/114/2
f 147/109/5 145/108/5 149/115/5
f 147/109/5 149/115/5 151/116/5
f 150/113/6 146/107/6 148/110/6
f 150/113/6 148/110/6 152/114/6
f 154/117/1 153/118/1 155/119/1
f 154/117/1 155/119/1 156/120/1
f 159/121/2 157/122/2 158/123/2
f 159/121/2 158/123/2 160/73/2
f 157/122/4 153/118/4 154/117/4
f 157/122/4 154/117/4 158/123/4
f 156/124/3 155/125/3 159/126/3
f 156/124/3 159/126/3 160/127/3
f 155/128/5 153/118/5 157/122/5
f 155/128/5 157/122/5 159/129/5
f 158/123/6 154/117/6 156/124/6
f 158/123/6 156/124/6 160/127/6
f 162/107/1 161/108/1 163/109/1
f 162/107/1 163/109/1 164/110/1
f 167/111/2 165/112/2 166/113/2
f 167/111/2 166/113/2 168/114/2
f 163/109/4 161/108/4 165/115/4
f 163/109/4 165/115/4 167/116/4
f 166/113/3 162/107/3 164/110/3
f 166/113/3 164/110/3 168/114/3
f 170/117/1 169/118/1 171/119/1
f 170/117/1 171/119/1 172/120/1
f 175/121/2 173/122/2 174/123/2
f 175/121/2 174/123/2 176/73/2
f 173/122/6 169/118/6 170/117/6
f 173/122/6 170/117/6 174/123/6
f 172/124/5 171/125/5 175/126/5
f 172/124/5 175/126/5 176/127/5
f 171/128/4 169/118/4 173/122/4
f 171/128/4 173/122/4 175/129/4
f 174/123/3 170/117/3 172/124/3
f 174/123/3 172/124/3 176/127/3
f 178/107/1 177/108/1 179/109/1
f 178/107/1 179/109/1 180/110/1
f 183/111/2 181/112/2 182/113/2
f 183/111/2 182/113/2 184/114/2
f 179/109/6 177/108/6 181/115/6
f 179/109/6 181/115/6 183/116/6
f 182/113/5 178/107/5 180/110/5
f 182/113/5 180/110/5 184/114/5
f 186/117/1 185/118/1 187/119/1
f 186/117/1 187/119/1 188/120/1
f 191/121/2 189/122/2 190/123/2
f 191/121/2 190/123/2 192/73/2
f 189/122/3 185/118/3 186/117/3
f 189/122/3 186/117/3 190/123/3
f 188/124/4 187/125/4 191/126/4
f 188/124/4 191/126/4 192/127/4
f 187/128/6 185/118/6 189/122/6
f 187/128/6 189/122/6 191/129/6
f 190/123/5 186/117/5 188/124/5
f 190/123/5 188/124/5 192/127/5
f 194/107/1 193/108/1 195/109/1
f 194/107/1 195/109/1 196/110/1
f 199/111/2 197/112/2 198/113/2
f 199/111/2 198/113/2 200/114/2
f 195/109/3 193/108/3 197/115/3
f 195/109/3 197/115/3 199/116/3
f 198/113/4 194/107/4 196/110/4
f 198/113/4 196/110/4 200/114/4
f 202/117/1 201/118/1 203/119/1
f 202/117/1 203/119/1 204/120/1
f 207/121/2 205/122/2 206/123/2
f 207/121/2 206/123/2 208/73/2
f 205/122/5 201/118/5 202/117/5
f 205/122/5 202/117/5 206/123/5
f 204/124/6 203/125/6 207/126/6
f 204/124/6 207/126/6 208/127/6
f 203/128/3 201/118/3 205/122/3
f 203/128/3 205/122/3 207/129/3
f 206/123/4 202/117/4 204/124/4
f 206/123/4 204/124/4 208/127/4
