# Blender 3.4.1
# www.blender.org
o cube
v 1.187500 1.062500 0.000000
v 1.187500 1.062500 0.000000
v 1.187500 -0.500000 -0.000000
v 1.187500 -0.500000 -0.000000
v 0.437500 1.062500 0.000000
v 0.437500 1.062500 0.000000
v 0.437500 -0.500000 -0.000000
v 0.437500 -0.500000 -0.000000
vn -0.0000 -0.0000 -1.0000
vn -0.0000 1.0000 -0.0000
vn 1.0000 -0.0000 -0.0000
vn -0.0000 -0.0000 1.0000
vn -1.0000 -0.0000 -0.0000
vn -0.0000 -1.0000 -0.0000
vt 0.708333 1.000000
vt 0.708333 1.000000
vt 0.708333 0.739583
vt 0.833333 1.000000
vt 0.708333 0.739583
vt 0.833333 1.000000
vt 0.583333 1.000000
vt 0.833333 1.000000
vt 0.583333 1.000000
vt 0.583333 0.739583
vt 0.708333 1.000000
vt 0.833333 0.739583
vt 0.708333 1.000000
vt 0.583333 0.739583
s 0
f 7/10/1 2/2/1 4/5/1
f 3/3/2 2/2/1 1/1/3
f 3/3/4 6/8/4 8/12/4
f 7/10/2 6/9/1 5/7/5
f 6/9/2 2/2/5 5/7/1
f 7/11/6 3/4/5 8/13/1
f 7/10/1 5/7/1 2/2/1
f 3/3/1 4/5/3 2/2/6
f 3/3/4 1/1/4 6/8/4
f 7/10/1 8/14/5 6/9/6
f 6/9/3 1/1/1 2/2/2
f 7/11/3 4/6/1 3/4/6
o cube.001
v -0.437500 1.062500 0.000000
v -0.437500 1.062500 0.000000
v -0.437500 -0.500000 -0.000000
v -0.437500 -0.500000 -0.000000
v -1.187500 1.062500 0.000000
v -1.187500 1.062500 0.000000
v -1.187500 -0.500000 -0.000000
v -1.187500 -0.500000 -0.000000
vn -0.0000 -0.0000 -1.0000
vn -0.0000 1.0000 -0.0000
vn 1.0000 -0.0000 -0.0000
vn -0.0000 -0.0000 1.0000
vn -1.0000 -0.0000 -0.0000
vn -0.0000 -1.0000 -0.0000
vt 0.833333 1.000000
vt 0.583333 1.000000
vt 0.583333 1.000000
vt 0.583333 0.739583
vt 0.833333 0.739583
vt 0.708333 1.000000
vt 0.583333 0.739583
vt 0.708333 1.000000
vt 0.708333 1.000000
vt 0.708333 1.000000
vt 0.708333 0.739583
vt 0.833333 1.000000
vt 0.833333 1.000000
vt 0.708333 0.739583
s 0
f 15/25/7 10/17/7 12/21/7
f 11/18/8 10/17/7 9/16/9
f 11/19/10 14/24/10 16/28/10
f 15/25/8 14/24/7 13/23/11
f 14/24/8 10/17/11 13/23/7
f 15/26/12 11/20/11 16/27/7
f 15/25/7 13/23/7 10/17/7
f 11/18/7 12/21/9 10/17/12
f 11/19/10 9/15/10 14/24/10
f 15/25/7 16/28/11 14/24/12
f 14/24/9 9/16/7 10/17/8
f 15/26/9 12/22/7 11/20/12
o cube.002
v 0.500000 -0.562500 0.156250
v 0.500000 -0.562500 -0.156250
v 0.500000 -0.875000 0.156250
v 0.500000 -0.875000 -0.156250
v 0.375000 -0.562500 -0.156250
v 0.375000 -0.562500 0.156250
v 0.375000 -0.875000 -0.156250
v 0.375000 -0.875000 0.156250
vn -0.0000 -0.0000 -1.0000
vn 1.0000 -0.0000 -0.0000
vn -0.0000 -0.0000 1.0000
vn -1.0000 -0.0000 -0.0000
vn -0.0000 1.0000 -0.0000
vn -0.0000 -1.0000 -0.0000
vt 0.000000 0.947917
vt 0.145833 0.947917
vt 0.052083 1.000000
vt 0.052083 0.947917
vt 0.000000 0.895833
vt 0.145833 0.895833
vt 0.072917 1.000000
vt 0.052083 0.895833
vt 0.072917 0.947917
vt 0.072917 0.947917
vt 0.072917 1.000000
vt 0.125000 0.947917
vt 0.093750 0.947917
vt 0.072917 0.895833
vt 0.125000 0.895833
vt 0.093750 1.000000
s 0
f 23/42/13 18/32/13 20/36/13
f 20/36/14 17/29/14 19/33/14
f 19/34/15 22/40/15 24/43/15
f 24/43/16 21/38/16 23/42/16
f 17/31/17 21/38/17 22/39/17
f 20/37/18 24/44/18 23/41/18
f 23/42/13 21/38/13 18/32/13
f 20/36/14 18/32/14 17/29/14
f 19/34/15 17/30/15 22/40/15
f 24/43/16 22/40/16 21/38/16
f 17/31/17 18/32/17 21/38/17
f 20/37/18 19/35/18 24/44/18
o cube.003
v -0.375000 -0.562500 0.156250
v -0.375000 -0.562500 -0.156250
v -0.375000 -0.875000 0.156250
v -0.375000 -0.875000 -0.156250
v -0.500000 -0.562500 -0.156250
v -0.500000 -0.562500 0.156250
v -0.500000 -0.875000 -0.156250
v -0.500000 -0.875000 0.156250
vn -0.0000 -0.0000 -1.0000
vn 1.0000 -0.0000 -0.0000
vn -0.0000 -0.0000 1.0000
vn -1.0000 -0.0000 -0.0000
vn -0.0000 1.0000 -0.0000
vn -0.0000 -1.0000 -0.0000
vt 0.125000 0.947917
vt 0.072917 1.000000
vt 0.072917 0.947917
vt 0.125000 0.895833
vt 0.093750 1.000000
vt 0.072917 0.895833
vt 0.093750 0.947917
vt 0.052083 0.947917
vt 0.052083 1.000000
vt 0.145833 0.947917
vt 0.000000 0.947917
vt 0.072917 0.947917
vt 0.052083 0.895833
vt 0.145833 0.895833
vt 0.000000 0.895833
vt 0.072917 1.000000
s 0
f 31/57/19 26/47/19 28/50/19
f 28/50/20 25/45/20 27/48/20
f 27/48/21 30/54/21 32/58/21
f 32/59/22 29/52/22 31/57/22
f 25/46/23 29/52/23 30/53/23
f 28/51/24 32/60/24 31/56/24
f 31/57/19 29/52/19 26/47/19
f 28/50/20 26/47/20 25/45/20
f 27/48/21 25/45/21 30/54/21
f 32/59/22 30/55/22 29/52/22
f 25/46/23 26/47/23 29/52/23
f 28/51/24 27/49/24 32/60/24
o cube.004
v 0.375000 -0.500000 0.375000
v 0.375000 -0.500000 -0.375000
v 0.375000 -0.937500 0.375000
v 0.375000 -0.937500 -0.375000
v -0.375000 -0.500000 -0.375000
v -0.375000 -0.500000 0.375000
v -0.375000 -0.937500 -0.375000
v -0.375000 -0.937500 0.375000
vn -0.0000 -0.0000 -1.0000
vn 1.0000 -0.0000 -0.0000
vn -0.0000 -0.0000 1.0000
vn -1.0000 -0.0000 -0.0000
vn -0.0000 1.0000 -0.0000
vn -0.0000 -1.0000 -0.0000
vt 0.000000 0.458333
vt 0.500000 0.458333
vt 0.125000 0.583333
vt 0.125000 0.458333
vt 0.000000 0.385417
vt 0.500000 0.385417
vt 0.250000 0.583333
vt 0.125000 0.385417
vt 0.250000 0.458333
vt 0.250000 0.458333
vt 0.250000 0.583333
vt 0.375000 0.458333
vt 0.375000 0.458333
vt 0.250000 0.385417
vt 0.375000 0.385417
vt 0.375000 0.583333
s 0
f 39/74/25 34/64/25 36/68/25
f 36/68/26 33/61/26 35/65/26
f 35/66/27 38/72/27 40/75/27
f 40/75/28 37/70/28 39/74/28
f 33/63/29 37/70/29 38/71/29
f 36/69/30 40/76/30 39/73/30
f 39/74/25 37/70/25 34/64/25
f 36/68/26 34/64/26 33/61/26
f 35/66/27 33/62/27 38/72/27
f 40/75/28 38/72/28 37/70/28
f 33/63/29 34/64/29 37/70/29
f 36/69/30 35/67/30 40/76/30
o cube.005
v 0.437500 1.125000 0.437500
v 0.437500 1.125000 -0.437500
v 0.437500 -0.500000 0.437500
v 0.437500 -0.500000 -0.437500
v -0.437500 1.125000 -0.437500
v -0.437500 1.125000 0.437500
v -0.437500 -0.500000 -0.437500
v -0.437500 -0.500000 0.437500
vn -0.0000 -0.0000 -1.0000
vn 1.0000 -0.0000 -0.0000
vn -0.0000 -0.0000 1.0000
vn -1.0000 -0.0000 -0.0000
vn -0.0000 1.0000 -0.0000
vn -0.0000 -1.0000 -0.0000
vt 0.000000 0.854167
vt 0.583333 0.854167
vt 0.145833 1.000000
vt 0.145833 0.854167
vt 0.000000 0.583333
vt 0.583333 0.583333
vt 0.291667 1.000000
vt 0.145833 0.583333
vt 0.291667 0.854167
vt 0.291667 0.854167
vt 0.291667 1.000000
vt 0.437500 0.854167
vt 0.437500 0.854167
vt 0.291667 0.583333
vt 0.437500 0.583333
vt 0.437500 1.000000
s 0
f 47/90/31 42/80/31 44/84/31
f 44/84/32 41/77/32 43/81/32
f 43/82/33 46/88/33 48/91/33
f 48/91/34 45/86/34 47/90/34
f 41/79/35 45/86/35 46/87/35
f 44/85/36 48/92/36 47/89/36
f 47/90/31 45/86/31 42/80/31
f 44/84/32 42/80/32 41/77/32
f 43/82/33 41/78/33 46/88/33
f 48/91/34 46/88/34 45/86/34
f 41/79/35 42/80/35 45/86/35
f 44/85/36 43/83/36 48/92/36
o cube.006
v 0.312500 1.250000 0.312500
v 0.312500 1.250000 -0.312500
v 0.312500 1.125000 0.312500
v 0.312500 1.125000 -0.312500
v -0.312500 1.250000 -0.312500
v -0.312500 1.250000 0.312500
v -0.312500 1.125000 -0.312500
v -0.312500 1.125000 0.312500
vn -0.0000 -0.0000 -1.0000
vn 1.0000 -0.0000 -0.0000
vn -0.0000 -0.0000 1.0000
vn -1.0000 -0.0000 -0.0000
vn -0.0000 1.0000 -0.0000
vn -0.0000 -1.0000 -0.0000
vt 0.000000 0.281250
vt 0.416667 0.281250
vt 0.104167 0.385417
vt 0.104167 0.281250
vt 0.000000 0.260417
vt 0.416667 0.260417
vt 0.208333 0.385417
vt 0.104167 0.260417
vt 0.208333 0.281250
vt 0.208333 0.281250
vt 0.208333 0.385417
vt 0.312500 0.281250
vt 0.312500 0.281250
vt 0.208333 0.260417
vt 0.312500 0.260417
vt 0.312500 0.385417
s 0
f 55/106/37 50/96/37 52/100/37
f 52/100/38 49/93/38 51/97/38
f 51/98/39 54/104/39 56/107/39
f 56/107/40 53/102/40 55/106/40
f 49/95/41 53/102/41 54/103/41
f 52/101/42 56/108/42 55/105/42
f 55/106/37 53/102/37 50/96/37
f 52/100/38 50/96/38 49/93/38
f 51/98/39 49/94/39 54/104/39
f 56/107/40 54/104/40 53/102/40
f 49/95/41 50/96/41 53/102/41
f 52/101/42 51/99/42 56/108/42
o cube.007
v -0.203125 -0.890625 -0.078125
v -0.359375 -0.890625 -0.078125
v -0.203125 -3.234375 -0.078126
v -0.359375 -3.234375 -0.078126
v -0.359375 -0.890625 0.078125
v -0.203125 -0.890625 0.078125
v -0.359375 -3.234375 0.078124
v -0.203125 -3.234375 0.078124
vn -1.0000 -0.0000 -0.0000
vn -0.0000 -0.0000 -1.0000
vn 1.0000 -0.0000 -0.0000
vn -0.0000 -0.0000 1.0000
vn -0.0000 1.0000 -0.0000
vn -0.0000 -1.0000 -0.0000
vt 0.875000 0.968750
vt 1.000000 0.968750
vt 0.906250 1.000000
vt 0.906250 0.968750
vt 0.875000 0.572917
vt 1.000000 0.572917
vt 0.937500 1.000000
vt 0.906250 0.572917
vt 0.937500 0.968750
vt 0.937500 0.968750
vt 0.937500 1.000000
vt 0.968750 0.968750
vt 0.968750 0.968750
vt 0.937500 0.572917
vt 0.968750 0.572917
vt 0.968750 1.000000
s 0
f 63/122/43 58/112/43 60/116/43
f 60/116/44 57/109/44 59/113/44
f 59/114/45 62/120/45 64/123/45
f 64/123/46 61/118/46 63/122/46
f 57/111/47 61/118/47 62/119/47
f 60/117/48 64/124/48 63/121/48
f 63/122/43 61/118/43 58/112/43
f 60/116/44 58/112/44 57/109/44
f 59/114/45 57/110/45 62/120/45
f 64/123/46 62/120/46 61/118/46
f 57/111/47 58/112/47 61/118/47
f 60/117/48 59/115/48 64/124/48
o cube.008
v -0.218750 -0.890625 0.108264
v -0.329235 -0.890625 0.218750
v -0.218750 -3.234375 0.108264
v -0.329235 -3.234375 0.218749
v -0.218750 -0.890625 0.329235
v -0.108265 -0.890625 0.218750
v -0.218750 -3.234375 0.329235
v -0.108265 -3.234375 0.218749
vn -0.7071 -0.0000 0.7071
vn -0.7071 -0.0000 -0.7071
vn 0.7071 -0.0000 -0.7071
vn 0.7071 -0.0000 0.7071
vn -0.0000 1.0000 -0.0000
vn -0.0000 -1.0000 -0.0000
vt 0.875000 0.968750
vt 1.000000 0.968750
vt 0.906250 1.000000
vt 0.906250 0.968750
vt 0.875000 0.572917
vt 1.000000 0.572917
vt 0.937500 1.000000
vt 0.906250 0.572917
vt 0.937500 0.968750
vt 0.937500 0.968750
vt 0.937500 1.000000
vt 0.968750 0.968750
vt 0.968750 0.968750
vt 0.937500 0.572917
vt 0.968750 0.572917
vt 0.968750 1.000000
s 0
f 71/138/49 66/128/49 68/132/49
f 68/132/50 65/125/50 67/129/50
f 67/130/51 70/136/51 72/139/51
f 72/139/52 69/134/52 71/138/52
f 65/127/53 69/134/53 70/135/53
f 68/133/54 72/140/54 71/137/54
f 71/138/49 69/134/49 66/128/49
f 68/132/50 66/128/50 65/125/50
f 67/130/51 65/126/51 70/136/51
f 72/139/52 70/136/52 69/134/52
f 65/127/53 66/128/53 69/134/53
f 68/133/54 67/131/54 72/140/54
o cube.009
v -0.078125 -0.890625 0.203125
v -0.078125 -0.890625 0.359375
v -0.078125 -3.234375 0.203124
v -0.078125 -3.234375 0.359374
v 0.078125 -0.890625 0.359375
v 0.078125 -0.890625 0.203125
v 0.078125 -3.234375 0.359374
v 0.078125 -3.234375 0.203124
vn -0.0000 -0.0000 1.0000
vn -1.0000 -0.0000 -0.0000
vn -0.0000 -0.0000 -1.0000
vn 1.0000 -0.0000 -0.0000
vn -0.0000 1.0000 -0.0000
vn -0.0000 -1.0000 -0.0000
vt 0.875000 0.968750
vt 1.000000 0.968750
vt 0.906250 1.000000
vt 0.906250 0.968750
vt 0.875000 0.572917
vt 1.000000 0.572917
vt 0.937500 1.000000
vt 0.906250 0.572917
vt 0.937500 0.968750
vt 0.937500 0.968750
vt 0.937500 1.000000
vt 0.968750 0.968750
vt 0.968750 0.968750
vt 0.937500 0.572917
vt 0.968750 0.572917
vt 0.968750 1.000000
s 0
f 79/154/55 74/144/55 76/148/55
f 76/148/56 73/141/56 75/145/56
f 75/146/57 78/152/57 80/155/57
f 80/155/58 77/150/58 79/154/58
f 73/143/59 77/150/59 78/151/59
f 76/149/60 80/156/60 79/153/60
f 79/154/55 77/150/55 74/144/55
f 76/148/56 74/144/56 73/141/56
f 75/146/57 73/142/57 78/152/57
f 80/155/58 78/152/58 77/150/58
f 73/143/59 74/144/59 77/150/59
f 76/149/60 75/147/60 80/156/60
o cube.010
v 0.108265 -0.890625 0.218750
v 0.218750 -0.890625 0.329235
v 0.108265 -3.234375 0.218749
v 0.218750 -3.234375 0.329235
v 0.329235 -0.890625 0.218750
v 0.218750 -0.890625 0.108264
v 0.329235 -3.234375 0.218749
v 0.218750 -3.234375 0.108264
vn 0.7071 -0.0000 0.7071
vn -0.7071 -0.0000 0.7071
vn -0.7071 -0.0000 -0.7071
vn 0.7071 -0.0000 -0.7071
vn -0.0000 1.0000 -0.0000
vn -0.0000 -1.0000 -0.0000
vt 0.875000 0.968750
vt 1.000000 0.968750
vt 0.906250 1.000000
vt 0.906250 0.968750
vt 0.875000 0.572917
vt 1.000000 0.572917
vt 0.937500 1.000000
vt 0.906250 0.572917
vt 0.937500 0.968750
vt 0.937500 0.968750
vt 0.937500 1.000000
vt 0.968750 0.968750
vt 0.968750 0.968750
vt 0.937500 0.572917
vt 0.968750 0.572917
vt 0.968750 1.000000
s 0
f 87/170/61 82/160/61 84/164/61
f 84/164/62 81/157/62 83/161/62
f 83/162/63 86/168/63 88/171/63
f 88/171/64 85/166/64 87/170/64
f 81/159/65 85/166/65 86/167/65
f 84/165/66 88/172/66 87/169/66
f 87/170/61 85/166/61 82/160/61
f 84/164/62 82/160/62 81/157/62
f 83/162/63 81/158/63 86/168/63
f 88/171/64 86/168/64 85/166/64
f 81/159/65 82/160/65 85/166/65
f 84/165/66 83/163/66 88/172/66
o cube.011
v 0.203125 -0.890625 0.078125
v 0.359375 -0.890625 0.078125
v 0.203125 -3.234375 0.078124
v 0.359375 -3.234375 0.078124
v 0.359375 -0.890625 -0.078125
v 0.203125 -0.890625 -0.078125
v 0.359375 -3.234375 -0.078126
v 0.203125 -3.234375 -0.078126
vn 1.0000 -0.0000 -0.0000
vn -0.0000 -0.0000 1.0000
vn -1.0000 -0.0000 -0.0000
vn -0.0000 -0.0000 -1.0000
vn -0.0000 1.0000 -0.0000
vn -0.0000 -1.0000 -0.0000
vt 0.875000 0.968750
vt 1.000000 0.968750
vt 0.906250 1.000000
vt 0.906250 0.968750
vt 0.875000 0.572917
vt 1.000000 0.572917
vt 0.937500 1.000000
vt 0.906250 0.572917
vt 0.937500 0.968750
vt 0.937500 0.968750
vt 0.937500 1.000000
vt 0.968750 0.968750
vt 0.968750 0.968750
vt 0.937500 0.572917
vt 0.968750 0.572917
vt 0.968750 1.000000
s 0
f 95/186/67 90/176/67 92/180/67
f 92/180/68 89/173/68 91/177/68
f 91/178/69 94/184/69 96/187/69
f 96/187/70 93/182/70 95/186/70
f 89/175/71 93/182/71 94/183/71
f 92/181/72 96/188/72 95/185/72
f 95/186/67 93/182/67 90/176/67
f 92/180/68 90/176/68 89/173/68
f 91/178/69 89/174/69 94/184/69
f 96/187/70 94/184/70 93/182/70
f 89/175/71 90/176/71 93/182/71
f 92/181/72 91/179/72 96/188/72
o cube.012
v 0.218750 -0.890625 -0.108265
v 0.329235 -0.890625 -0.218750
v 0.218750 -3.234375 -0.108265
v 0.329235 -3.234375 -0.218751
v 0.218750 -0.890625 -0.329236
v 0.108265 -0.890625 -0.218750
v 0.218750 -3.234375 -0.329236
v 0.108265 -3.234375 -0.218751
vn 0.7071 -0.0000 -0.7071
vn 0.7071 -0.0000 0.7071
vn -0.7071 -0.0000 0.7071
vn -0.7071 -0.0000 -0.7071
vn -0.0000 1.0000 -0.0000
vn -0.0000 -1.0000 -0.0000
vt 0.875000 0.968750
vt 1.000000 0.968750
vt 0.906250 1.000000
vt 0.906250 0.968750
vt 0.875000 0.572917
vt 1.000000 0.572917
vt 0.937500 1.000000
vt 0.906250 0.572917
vt 0.937500 0.968750
vt 0.937500 0.968750
vt 0.937500 1.000000
vt 0.968750 0.968750
vt 0.968750 0.968750
vt 0.937500 0.572917
vt 0.968750 0.572917
vt 0.968750 1.000000
s 0
f 103/202/73 98/192/73 100/196/73
f 100/196/74 97/189/74 99/193/74
f 99/194/75 102/200/75 104/203/75
f 104/203/76 101/198/76 103/202/76
f 97/191/77 101/198/77 102/199/77
f 100/197/78 104/204/78 103/201/78
f 103/202/73 101/198/73 98/192/73
f 100/196/74 98/192/74 97/189/74
f 99/194/75 97/190/75 102/200/75
f 104/203/76 102/200/76 101/198/76
f 97/191/77 98/192/77 101/198/77
f 100/197/78 99/195/78 104/204/78
o cube.013
v 0.078125 -0.890625 -0.203125
v 0.078125 -0.890625 -0.359375
v 0.078125 -3.234375 -0.203126
v 0.078125 -3.234375 -0.359376
v -0.078125 -0.890625 -0.359375
v -0.078125 -0.890625 -0.203125
v -0.078125 -3.234375 -0.359376
v -0.078125 -3.234375 -0.203126
vn -0.0000 -0.0000 -1.0000
vn 1.0000 -0.0000 -0.0000
vn -0.0000 -0.0000 1.0000
vn -1.0000 -0.0000 -0.0000
vn -0.0000 1.0000 -0.0000
vn -0.0000 -1.0000 -0.0000
vt 0.875000 0.968750
vt 1.000000 0.968750
vt 0.906250 1.000000
vt 0.906250 0.968750
vt 0.875000 0.572917
vt 1.000000 0.572917
vt 0.937500 1.000000
vt 0.906250 0.572917
vt 0.937500 0.968750
vt 0.937500 0.968750
vt 0.937500 1.000000
vt 0.968750 0.968750
vt 0.968750 0.968750
vt 0.937500 0.572917
vt 0.968750 0.572917
vt 0.968750 1.000000
s 0
f 111/218/79 106/208/79 108/212/79
f 108/212/80 105/205/80 107/209/80
f 107/210/81 110/216/81 112/219/81
f 112/219/82 109/214/82 111/218/82
f 105/207/83 109/214/83 110/215/83
f 108/213/84 112/220/84 111/217/84
f 111/218/79 109/214/79 106/208/79
f 108/212/80 106/208/80 105/205/80
f 107/210/81 105/206/81 110/216/81
f 112/219/82 110/216/82 109/214/82
f 105/207/83 106/208/83 109/214/83
f 108/213/84 107/211/84 112/220/84
o cube.014
v -0.108265 -0.890625 -0.218750
v -0.218750 -0.890625 -0.329236
v -0.108265 -3.234375 -0.218751
v -0.218750 -3.234375 -0.329236
v -0.329235 -0.890625 -0.218750
v -0.218750 -0.890625 -0.108265
v -0.329235 -3.234375 -0.218751
v -0.218750 -3.234375 -0.108265
vn -0.7071 -0.0000 -0.7071
vn 0.7071 -0.0000 -0.7071
vn 0.7071 -0.0000 0.7071
vn -0.7071 -0.0000 0.7071
vn -0.0000 1.0000 -0.0000
vn -0.0000 -1.0000 -0.0000
vt 0.875000 0.968750
vt 1.000000 0.968750
vt 0.906250 1.000000
vt 0.906250 0.968750
vt 0.875000 0.572917
vt 1.000000 0.572917
vt 0.937500 1.000000
vt 0.906250 0.572917
vt 0.937500 0.968750
vt 0.937500 0.968750
vt 0.937500 1.000000
vt 0.968750 0.968750
vt 0.968750 0.968750
vt 0.937500 0.572917
vt 0.968750 0.572917
vt 0.968750 1.000000
s 0
f 119/234/85 114/224/85 116/228/85
f 116/228/86 113/221/86 115/225/86
f 115/226/87 118/232/87 120/235/87
f 120/235/88 117/230/88 119/234/88
f 113/223/89 117/230/89 118/231/89
f 116/229/90 120/236/90 119/233/90
f 119/234/85 117/230/85 114/224/85
f 116/228/86 114/224/86 113/221/86
f 115/226/87 113/222/87 118/232/87
f 120/235/88 118/232/88 117/230/88
f 113/223/89 114/224/89 117/230/89
f 116/229/90 115/227/90 120/236/90
