# Blender 3.4.1
# www.blender.org
o cube
v 0.125000 0.312500 0.250000
v 0.125000 0.312500 -0.312500
v 0.125000 -0.000000 0.250000
v 0.125000 0.000000 -0.312500
v -0.125000 0.312500 -0.312500
v -0.125000 0.312500 0.250000
v -0.125000 0.000000 -0.312500
v -0.125000 -0.000000 0.250000
vn -0.0000 -0.0000 -1.0000
vn 1.0000 -0.0000 -0.0000
vn -0.0000 -0.0000 1.0000
vn -1.0000 -0.0000 -0.0000
vn -0.0000 1.0000 -0.0000
vn -0.0000 -1.0000 -0.0000
vt 0.000000 0.859375
vt 0.406250 0.859375
vt 0.140625 1.000000
vt 0.140625 0.859375
vt 0.000000 0.781250
vt 0.406250 0.781250
vt 0.203125 1.000000
vt 0.140625 0.781250
vt 0.203125 0.859375
vt 0.203125 0.859375
vt 0.203125 1.000000
vt 0.343750 0.859375
vt 0.265625 0.859375
vt 0.203125 0.781250
vt 0.343750 0.781250
vt 0.265625 1.000000
s 0
f 7/14/1 2/4/1 4/8/1
f 4/8/2 1/1/2 3/5/2
f 3/6/3 6/12/3 8/15/3
f 8/15/4 5/10/4 7/14/4
f 1/3/5 5/10/5 6/11/5
f 4/9/6 8/16/6 7/13/6
f 7/14/1 5/10/1 2/4/1
f 4/8/2 2/4/2 1/1/2
f 3/6/3 1/2/3 6/12/3
f 8/15/4 6/12/4 5/10/4
f 1/3/5 2/4/5 5/10/5
f 4/9/6 3/7/6 8/16/6
o cube.001
v 0.000000 0.537036 0.520719
v 0.000000 0.586061 -0.039641
v 0.000000 0.225725 0.493483
v 0.000000 0.274750 -0.066877
v 0.000000 0.586061 -0.039641
v 0.000000 0.537036 0.520719
v 0.000000 0.274750 -0.066877
v 0.000000 0.225725 0.493483
vn -0.0000 0.1166 -0.9932
vn -0.0000 -0.0000 -1.0000
vn -0.0000 0.0871 -0.9962
vn 1.0000 -0.0000 -0.0000
vn -0.0000 0.0847 0.9964
vn -0.0000 -0.0000 1.0000
vn -0.0000 -0.0871 0.9962
vn -1.0000 -0.0000 -0.0000
vn -0.0000 0.9255 -0.3788
vn -0.0000 0.9962 0.0872
vn -0.0000 -0.8568 0.5156
vn -0.0000 -0.9962 -0.0871
vn -0.0000 -0.0570 -0.9984
vn -0.0000 -0.0895 0.9960
vn -0.0000 -0.7385 0.6743
vn -0.0000 -0.9962 -0.0872
vn -0.0000 0.8144 -0.5803
vt 0.000000 0.687500
vt 0.281250 0.687500
vt 0.140625 0.828125
vt 0.140625 0.687500
vt 0.000000 0.609375
vt 0.281250 0.609375
vt 0.140625 0.828125
vt 0.140625 0.609375
vt 0.140625 0.687500
vt 0.140625 0.687500
vt 0.281250 0.687500
vt 0.140625 0.828125
vt 0.140625 0.609375
vt 0.140625 0.687500
vt 0.140625 0.828125
vt 0.281250 0.609375
s 0
f 12/24/7 13/26/8 10/20/9
f 12/24/10 9/17/10 11/21/10
f 16/32/11 9/18/12 14/27/13
f 16/32/14 13/26/14 15/29/14
f 14/28/15 10/20/12 13/26/16
f 15/30/17 11/23/8 16/31/18
f 12/24/8 15/29/9 13/26/19
f 12/24/10 10/20/10 9/17/10
f 16/32/12 11/22/13 9/18/20
f 16/32/14 14/27/14 13/26/14
f 14/28/12 9/19/16 10/20/21
f 15/30/8 12/25/22 11/23/23
o cube.002
v -0.125000 0.234375 -0.125000
v -0.125000 0.234375 -0.125000
v -0.125000 0.046875 -0.125000
v -0.125000 0.046875 -0.125000
v -0.283136 0.234375 -0.024256
v -0.283136 0.234375 -0.024256
v -0.283136 0.046875 -0.024256
v -0.283136 0.046875 -0.024256
vn -0.5373 -0.0000 -0.8434
vn -0.0000 0.8434 -0.5373
vn -0.0000 -0.0000 -1.0000
vn 0.8434 -0.0000 -0.5373
vn 0.5373 -0.0000 0.8434
vn -0.0000 0.8434 0.5373
vn -0.0000 -0.0000 1.0000
vn -0.8434 -0.0000 0.5373
vn -0.0000 1.0000 -0.0000
vn -0.9644 -0.0000 0.2644
vn -0.0000 -1.0000 -0.0000
vn -0.0000 -0.8434 -0.5373
vn -0.0000 -0.8434 0.5373
vn 0.9713 -0.0000 -0.2380
vt 0.093750 0.609375
vt 0.000000 0.609375
vt 0.000000 0.609375
vt 0.000000 0.562500
vt 0.093750 0.562500
vt 0.046875 0.609375
vt 0.000000 0.562500
vt 0.046875 0.609375
vt 0.046875 0.609375
vt 0.046875 0.609375
vt 0.046875 0.562500
vt 0.093750 0.609375
vt 0.093750 0.609375
vt 0.046875 0.562500
s 0
f 23/43/24 18/35/24 20/39/24
f 19/36/25 18/35/26 17/34/27
f 19/37/28 22/42/28 24/46/28
f 23/43/29 22/42/30 21/41/31
f 22/42/32 18/35/33 21/41/26
f 23/44/34 19/38/33 24/45/26
f 23/43/24 21/41/24 18/35/24
f 19/36/26 20/39/27 18/35/35
f 19/37/28 17/33/28 22/42/28
f 23/43/30 24/46/31 22/42/36
f 22/42/37 17/34/30 18/35/32
f 23/44/37 20/40/30 19/38/34
o cube.003
v 0.283136 0.234375 -0.024256
v 0.283136 0.234375 -0.024256
v 0.283136 0.046875 -0.024256
v 0.283136 0.046875 -0.024256
v 0.125000 0.234375 -0.125000
v 0.125000 0.234375 -0.125000
v 0.125000 0.046875 -0.125000
v 0.125000 0.046875 -0.125000
vn 0.5373 -0.0000 -0.8434
vn -0.0000 0.8434 0.5373
vn -0.0000 -0.0000 1.0000
vn 0.8434 -0.0000 0.5373
vn -0.5373 -0.0000 0.8434
vn -0.0000 0.8434 -0.5373
vn -0.0000 -0.0000 -1.0000
vn -0.8434 -0.0000 -0.5373
vn -0.0000 1.0000 -0.0000
vn -0.9713 -0.0000 -0.2380
vn -0.0000 -1.0000 -0.0000
vn -0.0000 -0.8434 0.5373
vn -0.0000 -0.8434 -0.5373
vn 0.9644 -0.0000 0.2644
vt 0.046875 0.609375
vt 0.046875 0.609375
vt 0.046875 0.562500
vt 0.093750 0.609375
vt 0.046875 0.562500
vt 0.093750 0.609375
vt 0.000000 0.609375
vt 0.093750 0.609375
vt 0.000000 0.609375
vt 0.000000 0.562500
vt 0.046875 0.609375
vt 0.093750 0.562500
vt 0.046875 0.609375
vt 0.000000 0.562500
s 0
f 31/56/38 26/48/38 28/51/38
f 27/49/39 26/48/40 25/47/41
f 27/49/42 30/54/42 32/58/42
f 31/56/43 30/55/44 29/53/45
f 30/55/46 26/48/47 29/53/40
f 31/57/48 27/50/47 32/59/40
f 31/56/38 29/53/38 26/48/38
f 27/49/40 28/51/41 26/48/49
f 27/49/42 25/47/42 30/54/42
f 31/56/44 32/60/45 30/55/50
f 30/55/51 25/47/44 26/48/46
f 31/57/51 28/52/44 27/50/48
o cube.004
v -0.125000 0.000000 0.000000
v -0.125000 0.000000 -0.250000
v -0.245523 -0.143633 -0.000000
v -0.245523 -0.143633 -0.250000
v -0.125000 0.000000 -0.250000
v -0.125000 0.000000 0.000000
v -0.245523 -0.143633 -0.250000
v -0.245523 -0.143633 -0.000000
vn -0.0000 -0.0000 -1.0000
vn 0.7660 -0.6428 -0.0000
vn -0.0000 -0.0000 1.0000
vn -0.7660 0.6428 -0.0000
vn -0.0000 -0.0000 -0.0000
vt 0.125000 0.781250
vt 0.062500 0.843750
vt 0.062500 0.781250
vt 0.125000 0.734375
vt 0.062500 0.843750
vt 0.062500 0.734375
vt 0.062500 0.781250
vt 0.062500 0.781250
vt 0.125000 0.781250
vt 0.000000 0.781250
vt 0.062500 0.843750
vt 0.062500 0.734375
vt 0.062500 0.781250
vt 0.062500 0.843750
vt 0.125000 0.734375
vt 0.000000 0.734375
s 0
f 36/66/52 37/68/52 34/63/52
f 36/66/53 33/61/53 35/64/53
f 40/75/54 33/61/54 38/69/54
f 40/76/55 37/68/55 39/72/55
f 38/71/56 34/63/56 37/68/56
f 39/73/56 35/65/56 40/74/56
f 36/66/52 39/72/52 37/68/52
f 36/66/53 34/63/53 33/61/53
f 40/75/54 35/64/54 33/61/54
f 40/76/55 38/70/55 37/68/55
f 38/71/56 33/62/56 34/63/56
f 39/73/56 36/67/56 35/65/56
o cube.005
v -0.093750 0.031250 0.312500
v -0.093750 0.031250 0.062500
v -0.214273 -0.112383 0.312500
v -0.214273 -0.112383 0.062500
v -0.093750 0.031250 0.062500
v -0.093750 0.031250 0.312500
v -0.214273 -0.112383 0.062500
v -0.214273 -0.112383 0.312500
vn -0.0000 -0.0000 -1.0000
vn 0.7660 -0.6428 -0.0000
vn -0.0000 -0.0000 1.0000
vn -0.7660 0.6428 -0.0000
vn -0.0000 -0.0000 -0.0000
vt 0.125000 0.734375
vt 0.062500 0.796875
vt 0.062500 0.734375
vt 0.125000 0.687500
vt 0.062500 0.796875
vt 0.062500 0.687500
vt 0.062500 0.734375
vt 0.062500 0.734375
vt 0.125000 0.734375
vt 0.000000 0.734375
vt 0.062500 0.796875
vt 0.062500 0.687500
vt 0.062500 0.734375
vt 0.062500 0.796875
vt 0.125000 0.687500
vt 0.000000 0.687500
s 0
f 44/82/57 45/84/57 42/79/57
f 44/82/58 41/77/58 43/80/58
f 48/91/59 41/77/59 46/85/59
f 48/92/60 45/84/60 47/88/60
f 46/87/61 42/79/61 45/84/61
f 47/89/61 43/81/61 48/90/61
f 44/82/57 47/88/57 45/84/57
f 44/82/58 42/79/58 41/77/58
f 48/91/59 43/80/59 41/77/59
f 48/92/60 46/86/60 45/84/60
f 46/87/61 41/78/61 42/79/61
f 47/89/61 44/83/61 43/81/61
o cube.006
v 0.125000 0.000000 0.000000
v 0.125000 0.000000 -0.250000
v 0.245523 -0.143633 -0.000000
v 0.245523 -0.143633 -0.250000
v 0.125000 0.000000 -0.250000
v 0.125000 0.000000 0.000000
v 0.245523 -0.143633 -0.250000
v 0.245523 -0.143633 -0.000000
vn -0.0000 -0.0000 -1.0000
vn 0.7660 0.6428 -0.0000
vn -0.0000 -0.0000 1.0000
vn -0.7660 -0.6428 -0.0000
vn -0.0000 -0.0000 -0.0000
vt 0.000000 0.781250
vt 0.125000 0.781250
vt 0.062500 0.843750
vt 0.062500 0.781250
vt 0.000000 0.734375
vt 0.125000 0.734375
vt 0.062500 0.843750
vt 0.062500 0.734375
vt 0.062500 0.781250
vt 0.062500 0.781250
vt 0.125000 0.781250
vt 0.062500 0.843750
vt 0.062500 0.734375
vt 0.062500 0.781250
vt 0.062500 0.843750
vt 0.125000 0.734375
s 0
f 52/100/62 53/102/62 50/96/62
f 52/100/63 49/93/63 51/97/63
f 56/108/64 49/94/64 54/103/64
f 56/108/65 53/102/65 55/105/65
f 54/104/66 50/96/66 53/102/66
f 55/106/66 51/99/66 56/107/66
f 52/100/62 55/105/62 53/102/62
f 52/100/63 50/96/63 49/93/63
f 56/108/64 51/98/64 49/94/64
f 56/108/65 54/103/65 53/102/65
f 54/104/66 49/95/66 50/96/66
f 55/106/66 52/101/66 51/99/66
o cube.007
v 0.093750 0.031250 0.312500
v 0.093750 0.031250 0.062500
v 0.214273 -0.112383 0.312500
v 0.214273 -0.112383 0.062500
v 0.093750 0.031250 0.062500
v 0.093750 0.031250 0.312500
v 0.214273 -0.112383 0.062500
v 0.214273 -0.112383 0.312500
vn -0.0000 -0.0000 -1.0000
vn 0.7660 0.6428 -0.0000
vn -0.0000 -0.0000 1.0000
vn -0.7660 -0.6428 -0.0000
vn -0.0000 -0.0000 -0.0000
vt 0.000000 0.734375
vt 0.125000 0.734375
vt 0.062500 0.796875
vt 0.062500 0.734375
vt 0.000000 0.687500
vt 0.125000 0.687500
vt 0.062500 0.796875
vt 0.062500 0.687500
vt 0.062500 0.734375
vt 0.062500 0.734375
vt 0.125000 0.734375
vt 0.062500 0.796875
vt 0.062500 0.687500
vt 0.062500 0.734375
vt 0.062500 0.796875
vt 0.125000 0.687500
s 0
f 60/116/67 61/118/67 58/112/67
f 60/116/68 57/109/68 59/113/68
f 64/124/69 57/110/69 62/119/69
f 64/124/70 61/118/70 63/121/70
f 62/120/71 58/112/71 61/118/71
f 63/122/71 59/115/71 64/123/71
f 60/116/67 63/121/67 61/118/67
f 60/116/68 58/112/68 57/109/68
f 64/124/69 59/114/69 57/110/69
f 64/124/70 62/119/70 61/118/70
f 62/120/71 57/111/71 58/112/71
f 63/122/71 60/117/71 59/115/71
o cube.008
v 0.093750 0.218750 -0.312500
v 0.093750 0.218750 -0.500000
v 0.093750 0.031250 -0.312500
v 0.093750 0.031250 -0.500000
v -0.093750 0.218750 -0.500000
v -0.093750 0.218750 -0.312500
v -0.093750 0.031250 -0.500000
v -0.093750 0.031250 -0.312500
vn -0.0000 -0.0000 -1.0000
vn 1.0000 -0.0000 -0.0000
vn -0.0000 -0.0000 1.0000
vn -1.0000 -0.0000 -0.0000
vn -0.0000 1.0000 -0.0000
vn -0.0000 -1.0000 -0.0000
vt 0.265625 0.953125
vt 0.453125 0.953125
vt 0.312500 1.000000
vt 0.312500 0.953125
vt 0.265625 0.906250
vt 0.453125 0.906250
vt 0.359375 1.000000
vt 0.312500 0.906250
vt 0.359375 0.953125
vt 0.359375 0.953125
vt 0.359375 1.000000
vt 0.406250 0.953125
vt 0.406250 0.953125
vt 0.359375 0.906250
vt 0.406250 0.906250
vt 0.406250 1.000000
s 0
f 71/138/72 66/128/72 68/132/72
f 68/132/73 65/125/73 67/129/73
f 67/130/74 70/136/74 72/139/74
f 72/139/75 69/134/75 71/138/75
f 65/127/76 69/134/76 70/135/76
f 68/133/77 72/140/77 71/137/77
f 71/138/72 69/134/72 66/128/72
f 68/132/73 66/128/73 65/125/73
f 67/130/74 65/126/74 70/136/74
f 72/139/75 70/136/75 69/134/75
f 65/127/76 66/128/76 69/134/76
f 68/133/77 67/131/77 72/140/77
o cube.009
v 0.093750 0.281250 0.562500
v 0.093750 0.281250 0.187500
v 0.093750 0.031250 0.562500
v 0.093750 0.031250 0.187500
v -0.093750 0.281250 0.187500
v -0.093750 0.281250 0.562500
v -0.093750 0.031250 0.187500
v -0.093750 0.031250 0.562500
vn -0.0000 -0.0000 -1.0000
vn 1.0000 -0.0000 -0.0000
vn -0.0000 -0.0000 1.0000
vn -1.0000 -0.0000 -0.0000
vn -0.0000 1.0000 -0.0000
vn -0.0000 -1.0000 -0.0000
vt 0.406250 0.906250
vt 0.687500 0.906250
vt 0.500000 1.000000
vt 0.500000 0.906250
vt 0.406250 0.843750
vt 0.687500 0.843750
vt 0.546875 1.000000
vt 0.500000 0.843750
vt 0.546875 0.906250
vt 0.546875 0.906250
vt 0.546875 1.000000
vt 0.640625 0.906250
vt 0.593750 0.906250
vt 0.546875 0.843750
vt 0.640625 0.843750
vt 0.593750 1.000000
s 0
f 79/154/78 74/144/78 76/148/78
f 76/148/79 73/141/79 75/145/79
f 75/146/80 78/152/80 80/155/80
f 80/155/81 77/150/81 79/154/81
f 73/143/82 77/150/82 78/151/82
f 76/149/83 80/156/83 79/153/83
f 79/154/78 77/150/78 74/144/78
f 76/148/79 74/144/79 73/141/79
f 75/146/80 73/142/80 78/152/80
f 80/155/81 78/152/81 77/150/81
f 73/143/82 74/144/82 77/150/82
f 76/149/83 75/147/83 80/156/83
o cube.010
v 0.000000 0.562500 1.125000
v 0.000000 0.562500 0.375000
v 0.000000 -0.187500 1.125000
v 0.000000 -0.187500 0.375000
v 0.000000 0.562500 0.375000
v 0.000000 0.562500 1.125000
v 0.000000 -0.187500 0.375000
v 0.000000 -0.187500 1.125000
vn -0.0000 -0.0000 -1.0000
vn 1.0000 -0.0000 -0.0000
vn -0.0000 -0.0000 1.0000
vn -1.0000 -0.0000 -0.0000
vn -0.0000 -0.0000 -0.0000
vt 0.000000 0.187500
vt 0.375000 0.187500
vt 0.187500 0.375000
vt 0.187500 0.187500
vt 0.000000 0.000000
vt 0.375000 0.000000
vt 0.187500 0.375000
vt 0.187500 0.000000
vt 0.187500 0.187500
vt 0.187500 0.187500
vt 0.375000 0.187500
vt 0.187500 0.375000
vt 0.187500 0.000000
vt 0.187500 0.187500
vt 0.187500 0.375000
vt 0.375000 0.000000
s 0
f 84/164/84 85/166/84 82/160/84
f 84/164/85 81/157/85 83/161/85
f 88/172/86 81/158/86 86/167/86
f 88/172/87 85/166/87 87/169/87
f 86/168/88 82/160/88 85/166/88
f 87/170/88 83/163/88 88/171/88
f 84/164/84 87/169/84 85/166/84
f 84/164/85 82/160/85 81/157/85
f 88/172/86 83/162/86 81/158/86
f 88/172/87 86/167/87 85/166/87
f 86/168/88 81/159/88 82/160/88
f 87/170/88 84/165/88 83/163/88
