# Blender 3.4.1
# www.blender.org
o head
v 0.093750 0.281250 -0.437500
v 0.093750 0.281250 -0.687500
v 0.093750 0.093750 -0.437500
v 0.093750 0.093750 -0.687500
v -0.093750 0.281250 -0.687500
v -0.093750 0.281250 -0.437500
v -0.093750 0.093750 -0.687500
v -0.093750 0.093750 -0.437500
vn -0.0000 -0.0000 -1.0000
vn 1.0000 -0.0000 -0.0000
vn -0.0000 -0.0000 1.0000
vn -1.0000 -0.0000 -0.0000
vn -0.0000 1.0000 -0.0000
vn -0.0000 -1.0000 -0.0000
vt 0.234375 0.937500
vt 0.453125 0.937500
vt 0.296875 1.000000
vt 0.296875 0.937500
vt 0.234375 0.890625
vt 0.453125 0.890625
vt 0.343750 1.000000
vt 0.296875 0.890625
vt 0.343750 0.937500
vt 0.343750 0.937500
vt 0.343750 1.000000
vt 0.406250 0.937500
vt 0.390625 0.937500
vt 0.343750 0.890625
vt 0.406250 0.890625
vt 0.390625 1.000000
s 0
f 7/14/1 2/4/1 4/8/1
f 4/8/2 1/1/2 3/5/2
f 3/6/3 6/12/3 8/15/3
f 8/15/4 5/10/4 7/14/4
f 1/3/5 5/10/5 6/11/5
f 4/9/6 8/16/6 7/13/6
f 7/14/1 5/10/1 2/4/1
f 4/8/2 2/4/2 1/1/2
f 3/6/3 1/2/3 6/12/3
f 8/15/4 6/12/4 5/10/4
f 1/3/5 2/4/5 5/10/5
f 4/9/6 3/7/6 8/16/6
o jaw
v 0.093125 0.155625 -0.438125
v 0.093125 0.155625 -0.686875
v 0.093125 0.031875 -0.438125
v 0.093125 0.031875 -0.686875
v -0.093125 0.155625 -0.686875
v -0.093125 0.155625 -0.438125
v -0.093125 0.031875 -0.686875
v -0.093125 0.031875 -0.438125
vn -0.0000 -0.0000 -1.0000
vn 1.0000 -0.0000 -0.0000
vn -0.0000 -0.0000 1.0000
vn -1.0000 -0.0000 -0.0000
vn -0.0000 1.0000 -0.0000
vn -0.0000 -1.0000 -0.0000
vt 0.453125 0.937500
vt 0.671875 0.937500
vt 0.515625 1.000000
vt 0.515625 0.937500
vt 0.453125 0.906250
vt 0.671875 0.906250
vt 0.562500 1.000000
vt 0.515625 0.906250
vt 0.562500 0.937500
vt 0.562500 0.937500
vt 0.562500 1.000000
vt 0.625000 0.937500
vt 0.609375 0.937500
vt 0.562500 0.906250
vt 0.625000 0.906250
vt 0.609375 1.000000
s 0
f 15/30/7 10/20/7 12/24/7
f 12/24/8 9/17/8 11/21/8
f 11/22/9 14/28/9 16/31/9
f 16/31/10 13/26/10 15/30/10
f 9/19/11 13/26/11 14/27/11
f 12/25/12 16/32/12 15/29/12
f 15/30/7 13/26/7 10/20/7
f 12/24/8 10/20/8 9/17/8
f 11/22/9 9/18/9 14/28/9
f 16/31/10 14/28/10 13/26/10
f 9/19/11 10/20/11 13/26/11
f 12/25/12 11/23/12 16/32/12
o topfinfront
v 0.000000 0.625000 0.000000
v 0.000000 0.625000 -0.437500
v 0.000000 0.312500 0.000000
v 0.000000 0.312500 -0.437500
v 0.000000 0.625000 -0.437500
v 0.000000 0.625000 0.000000
v 0.000000 0.312500 -0.437500
v 0.000000 0.312500 0.000000
vn -0.0000 -0.0000 -1.0000
vn 1.0000 -0.0000 -0.0000
vn -0.0000 -0.0000 1.0000
vn -1.0000 -0.0000 -0.0000
vn -0.0000 -0.0000 -0.0000
vt 0.781250 0.859375
vt 1.000000 0.859375
vt 0.890625 0.968750
vt 0.890625 0.859375
vt 0.781250 0.781250
vt 1.000000 0.781250
vt 0.890625 0.968750
vt 0.890625 0.781250
vt 0.890625 0.859375
vt 0.890625 0.859375
vt 1.000000 0.859375
vt 0.890625 0.968750
vt 0.890625 0.781250
vt 0.890625 0.859375
vt 0.890625 0.968750
vt 1.000000 0.781250
s 0
f 20/40/13 21/42/13 18/36/13
f 20/40/14 17/33/14 19/37/14
f 24/48/15 17/34/15 22/43/15
f 24/48/16 21/42/16 23/45/16
f 22/44/17 18/36/17 21/42/17
f 23/46/17 19/39/17 24/47/17
f 20/40/13 23/45/13 21/42/13
f 20/40/14 18/36/14 17/33/14
f 24/48/15 19/38/15 17/34/15
f 24/48/16 22/43/16 21/42/16
f 22/44/17 17/35/17 18/36/17
f 23/46/17 20/41/17 19/39/17
o bottomfinfront
v 0.000000 0.000000 0.000000
v 0.000000 0.000000 -0.437500
v 0.000000 -0.312500 -0.000000
v 0.000000 -0.312500 -0.437500
v 0.000000 0.000000 -0.437500
v 0.000000 0.000000 0.000000
v 0.000000 -0.312500 -0.437500
v 0.000000 -0.312500 -0.000000
vn -0.0000 -0.0000 -1.0000
vn 1.0000 -0.0000 -0.0000
vn -0.0000 -0.0000 1.0000
vn -1.0000 -0.0000 -0.0000
vn -0.0000 -0.0000 -0.0000
vt 0.781250 0.781250
vt 1.000000 0.781250
vt 0.890625 0.890625
vt 0.890625 0.781250
vt 0.781250 0.703125
vt 1.000000 0.703125
vt 0.890625 0.890625
vt 0.890625 0.703125
vt 0.890625 0.781250
vt 0.890625 0.781250
vt 1.000000 0.781250
vt 0.890625 0.890625
vt 0.890625 0.703125
vt 0.890625 0.781250
vt 0.890625 0.890625
vt 1.000000 0.703125
s 0
f 28/56/18 29/58/18 26/52/18
f 28/56/19 25/49/19 27/53/19
f 32/64/20 25/50/20 30/59/20
f 32/64/21 29/58/21 31/61/21
f 30/60/22 26/52/22 29/58/22
f 31/62/22 27/55/22 32/63/22
f 28/56/18 31/61/18 29/58/18
f 28/56/19 26/52/19 25/49/19
f 32/64/20 27/54/20 25/50/20
f 32/64/21 30/59/21 29/58/21
f 30/60/22 25/51/22 26/52/22
f 31/62/22 28/57/22 27/55/22
o finR
v 0.268506 0.250000 0.158955
v 0.125000 0.250000 -0.187500
v 0.268506 -0.000000 0.158955
v 0.125000 0.000000 -0.187500
v 0.125000 0.250000 -0.187500
v 0.268506 0.250000 0.158955
v 0.125000 0.000000 -0.187500
v 0.268506 -0.000000 0.158955
vn -0.0000 0.3827 -0.9239
vn -0.0000 -0.0000 -1.0000
vn -0.3827 -0.0000 -0.9239
vn 0.9239 -0.0000 -0.3827
vn -0.0000 0.3827 0.9239
vn -0.0000 -0.0000 1.0000
vn 0.3827 -0.0000 0.9239
vn -0.9239 -0.0000 0.3827
vn -0.9096 -0.0000 -0.4154
vn -0.0000 1.0000 -0.0000
vn 0.8660 -0.0000 0.5000
vn -0.0000 -1.0000 -0.0000
vn -0.0000 -0.3827 -0.9239
vn -0.0000 -0.3827 0.9239
vt 0.812500 0.921875
vt 1.000000 0.921875
vt 0.906250 1.015625
vt 0.906250 0.921875
vt 0.812500 0.859375
vt 1.000000 0.859375
vt 0.906250 1.015625
vt 0.906250 0.859375
vt 0.906250 0.921875
vt 0.906250 0.921875
vt 1.000000 0.921875
vt 0.906250 1.015625
vt 0.906250 0.859375
vt 0.906250 0.921875
vt 0.906250 1.015625
vt 1.000000 0.859375
s 0
f 36/72/23 37/74/24 34/68/25
f 36/72/26 33/65/26 35/69/26
f 40/80/27 33/66/28 38/75/29
f 40/80/30 37/74/30 39/77/30
f 38/76/31 34/68/24 37/74/32
f 39/78/33 35/71/24 40/79/34
f 36/72/24 39/77/25 37/74/35
f 36/72/26 34/68/26 33/65/26
f 40/80/28 35/70/29 33/66/36
f 40/80/30 38/75/30 37/74/30
f 38/76/24 33/67/32 34/68/33
f 39/78/24 36/73/34 35/71/31
o finL
v -0.268506 0.250000 0.158955
v -0.125000 0.250000 -0.187500
v -0.268506 -0.000000 0.158955
v -0.125000 0.000000 -0.187500
v -0.125000 0.250000 -0.187500
v -0.268506 0.250000 0.158955
v -0.125000 0.000000 -0.187500
v -0.268506 -0.000000 0.158955
vn -0.0000 0.3827 -0.9239
vn -0.0000 -0.0000 -1.0000
vn 0.3827 -0.0000 -0.9239
vn 0.9239 -0.0000 0.3827
vn -0.0000 0.3827 0.9239
vn -0.0000 -0.0000 1.0000
vn -0.3827 -0.0000 0.9239
vn -0.9239 -0.0000 -0.3827
vn 0.9096 -0.0000 -0.4154
vn -0.0000 1.0000 -0.0000
vn -0.8660 -0.0000 0.5000
vn -0.0000 -1.0000 -0.0000
vn -0.0000 -0.3827 -0.9239
vn -0.0000 -0.3827 0.9239
vt 1.000000 0.921875
vt 0.906250 1.015625
vt 0.906250 0.921875
vt 1.000000 0.859375
vt 0.906250 1.015625
vt 0.906250 0.859375
vt 0.906250 0.921875
vt 0.906250 0.921875
vt 1.000000 0.921875
vt 0.812500 0.921875
vt 0.906250 1.015625
vt 0.906250 0.859375
vt 0.906250 0.921875
vt 0.906250 1.015625
vt 1.000000 0.859375
vt 0.812500 0.859375
s 0
f 44/86/37 45/88/38 42/83/39
f 44/86/40 41/81/40 43/84/40
f 48/95/41 41/81/42 46/89/43
f 48/96/44 45/88/44 47/92/44
f 46/91/45 42/83/38 45/88/46
f 47/93/47 43/85/38 48/94/48
f 44/86/38 47/92/39 45/88/49
f 44/86/40 42/83/40 41/81/40
f 48/95/42 43/84/43 41/81/50
f 48/96/44 46/90/44 45/88/44
f 46/91/38 41/82/46 42/83/47
f 47/93/38 44/87/48 43/85/45
o frontbodyseg
v 0.125000 0.312500 0.000000
v 0.125000 0.312500 -0.437500
v 0.125000 0.000000 0.000000
v 0.125000 0.000000 -0.437500
v -0.125000 0.312500 -0.437500
v -0.125000 0.312500 0.000000
v -0.125000 0.000000 -0.437500
v -0.125000 0.000000 0.000000
vn -0.0000 -0.0000 -1.0000
vn 1.0000 -0.0000 -0.0000
vn -0.0000 -0.0000 1.0000
vn -1.0000 -0.0000 -0.0000
vn -0.0000 1.0000 -0.0000
vn -0.0000 -1.0000 -0.0000
vt 0.000000 0.890625
vt 0.343750 0.890625
vt 0.109375 1.000000
vt 0.109375 0.890625
vt 0.000000 0.812500
vt 0.343750 0.812500
vt 0.171875 1.000000
vt 0.109375 0.812500
vt 0.171875 0.890625
vt 0.171875 0.890625
vt 0.171875 1.000000
vt 0.281250 0.890625
vt 0.234375 0.890625
vt 0.171875 0.812500
vt 0.281250 0.812500
vt 0.234375 1.000000
s 0
f 55/110/51 50/100/51 52/104/51
f 52/104/52 49/97/52 51/101/52
f 51/102/53 54/108/53 56/111/53
f 56/111/54 53/106/54 55/110/54
f 49/99/55 53/106/55 54/107/55
f 52/105/56 56/112/56 55/109/56
f 55/110/51 53/106/51 50/100/51
f 52/104/52 50/100/52 49/97/52
f 51/102/53 49/98/53 54/108/53
f 56/111/54 54/108/54 53/106/54
f 49/99/55 50/100/55 53/106/55
f 52/105/56 51/103/56 56/112/56
o topfinmid
v 0.000625 0.750000 0.687500
v 0.000625 0.750000 0.000000
v 0.000625 0.312500 0.687500
v 0.000625 0.312500 0.000000
v 0.000625 0.750000 0.000000
v 0.000625 0.750000 0.687500
v 0.000625 0.312500 0.000000
v 0.000625 0.312500 0.687500
vn -0.0000 -0.0000 -1.0000
vn 1.0000 -0.0000 -0.0000
vn -0.0000 -0.0000 1.0000
vn -1.0000 -0.0000 -0.0000
vn -0.0000 -0.0000 -0.0000
vt 0.656250 0.421875
vt 1.000000 0.421875
vt 0.828125 0.593750
vt 0.828125 0.421875
vt 0.656250 0.312500
vt 1.000000 0.312500
vt 0.828125 0.593750
vt 0.828125 0.312500
vt 0.828125 0.421875
vt 0.828125 0.421875
vt 1.000000 0.421875
vt 0.828125 0.593750
vt 0.828125 0.312500
vt 0.828125 0.421875
vt 0.828125 0.593750
vt 1.000000 0.312500
s 0
f 60/120/57 61/122/57 58/116/57
f 60/120/58 57/113/58 59/117/58
f 64/128/59 57/114/59 62/123/59
f 64/128/60 61/122/60 63/125/60
f 62/124/61 58/116/61 61/122/61
f 63/126/61 59/119/61 64/127/61
f 60/120/57 63/125/57 61/122/57
f 60/120/58 58/116/58 57/113/58
f 64/128/59 59/118/59 57/114/59
f 64/128/60 62/123/60 61/122/60
f 62/124/61 57/115/61 58/116/61
f 63/126/61 60/121/61 59/119/61
o bottomfinmid
v 0.000625 -0.000000 0.687500
v 0.000625 0.000000 0.000000
v 0.000625 -0.437500 0.687500
v 0.000625 -0.437500 -0.000000
v 0.000625 0.000000 0.000000
v 0.000625 -0.000000 0.687500
v 0.000625 -0.437500 -0.000000
v 0.000625 -0.437500 0.687500
vn -0.0000 -0.0000 -1.0000
vn 1.0000 -0.0000 -0.0000
vn -0.0000 -0.0000 1.0000
vn -1.0000 -0.0000 -0.0000
vn -0.0000 -0.0000 -0.0000
vt 0.656250 0.312500
vt 1.000000 0.312500
vt 0.828125 0.484375
vt 0.828125 0.312500
vt 0.656250 0.203125
vt 1.000000 0.203125
vt 0.828125 0.484375
vt 0.828125 0.203125
vt 0.828125 0.312500
vt 0.828125 0.312500
vt 1.000000 0.312500
vt 0.828125 0.484375
vt 0.828125 0.203125
vt 0.828125 0.312500
vt 0.828125 0.484375
vt 1.000000 0.203125
s 0
f 68/136/62 69/138/62 66/132/62
f 68/136/63 65/129/63 67/133/63
f 72/144/64 65/130/64 70/139/64
f 72/144/65 69/138/65 71/141/65
f 70/140/66 66/132/66 69/138/66
f 71/142/66 67/135/66 72/143/66
f 68/136/62 71/141/62 69/138/62
f 68/136/63 66/132/63 65/129/63
f 72/144/64 67/134/64 65/130/64
f 72/144/65 70/139/65 69/138/65
f 70/140/66 65/131/66 66/132/66
f 71/142/66 68/137/66 67/135/66
o topfinmidlast
v 0.000000 0.625000 1.000000
v 0.000000 0.625000 0.500000
v 0.000000 0.312500 1.000000
v 0.000000 0.312500 0.500000
v 0.000000 0.625000 0.500000
v 0.000000 0.625000 1.000000
v 0.000000 0.312500 0.500000
v 0.000000 0.312500 1.000000
vn -0.0000 -0.0000 -1.0000
vn 1.0000 -0.0000 -0.0000
vn -0.0000 -0.0000 1.0000
vn -1.0000 -0.0000 -0.0000
vn -0.0000 -0.0000 -0.0000
vt 0.750000 0.578125
vt 1.000000 0.578125
vt 0.875000 0.703125
vt 0.875000 0.578125
vt 0.750000 0.500000
vt 1.000000 0.500000
vt 0.875000 0.703125
vt 0.875000 0.500000
vt 0.875000 0.578125
vt 0.875000 0.578125
vt 1.000000 0.578125
vt 0.875000 0.703125
vt 0.875000 0.500000
vt 0.875000 0.578125
vt 0.875000 0.703125
vt 1.000000 0.500000
s 0
f 76/152/67 77/154/67 74/148/67
f 76/152/68 73/145/68 75/149/68
f 80/160/69 73/146/69 78/155/69
f 80/160/70 77/154/70 79/157/70
f 78/156/71 74/148/71 77/154/71
f 79/158/71 75/151/71 80/159/71
f 76/152/67 79/157/67 77/154/67
f 76/152/68 74/148/68 73/145/68
f 80/160/69 75/150/69 73/146/69
f 80/160/70 78/155/70 77/154/70
f 78/156/71 73/147/71 74/148/71
f 79/158/71 76/153/71 75/151/71
o bottomfinmidlast
v 0.000000 -0.000000 1.000000
v 0.000000 -0.000000 0.500000
v 0.000000 -0.312500 1.000000
v 0.000000 -0.312500 0.500000
v 0.000000 -0.000000 0.500000
v 0.000000 -0.000000 1.000000
v 0.000000 -0.312500 0.500000
v 0.000000 -0.312500 1.000000
vn -0.0000 -0.0000 -1.0000
vn 1.0000 -0.0000 -0.0000
vn -0.0000 -0.0000 1.0000
vn -1.0000 -0.0000 -0.0000
vn -0.0000 -0.0000 -0.0000
vt 0.750000 0.500000
vt 1.000000 0.500000
vt 0.875000 0.625000
vt 0.875000 0.500000
vt 0.750000 0.421875
vt 1.000000 0.421875
vt 0.875000 0.625000
vt 0.875000 0.421875
vt 0.875000 0.500000
vt 0.875000 0.500000
vt 1.000000 0.500000
vt 0.875000 0.625000
vt 0.875000 0.421875
vt 0.875000 0.500000
vt 0.875000 0.625000
vt 1.000000 0.421875
s 0
f 84/168/72 85/170/72 82/164/72
f 84/168/73 81/161/73 83/165/73
f 88/176/74 81/162/74 86/171/74
f 88/176/75 85/170/75 87/173/75
f 86/172/76 82/164/76 85/170/76
f 87/174/76 83/167/76 88/175/76
f 84/168/72 87/173/72 85/170/72
f 84/168/73 82/164/73 81/161/73
f 88/176/74 83/166/74 81/162/74
f 88/176/75 86/171/75 85/170/75
f 86/172/76 81/163/76 82/164/76
f 87/174/76 84/169/76 83/167/76
o topfinlast
v 0.000625 0.515625 1.500000
v 0.000625 0.515625 1.000000
v 0.000625 0.265625 1.500000
v 0.000625 0.265625 1.000000
v 0.000625 0.515625 1.000000
v 0.000625 0.515625 1.500000
v 0.000625 0.265625 1.000000
v 0.000625 0.265625 1.500000
vn -0.0000 -0.0000 -1.0000
vn 1.0000 -0.0000 -0.0000
vn -0.0000 -0.0000 1.0000
vn -1.0000 -0.0000 -0.0000
vn -0.0000 -0.0000 -0.0000
vt 0.750000 0.703125
vt 1.000000 0.703125
vt 0.875000 0.828125
vt 0.875000 0.703125
vt 0.750000 0.640625
vt 1.000000 0.640625
vt 0.875000 0.828125
vt 0.875000 0.640625
vt 0.875000 0.703125
vt 0.875000 0.703125
vt 1.000000 0.703125
vt 0.875000 0.828125
vt 0.875000 0.640625
vt 0.875000 0.703125
vt 0.875000 0.828125
vt 1.000000 0.640625
s 0
f 92/184/77 93/186/77 90/180/77
f 92/184/78 89/177/78 91/181/78
f 96/192/79 89/178/79 94/187/79
f 96/192/80 93/186/80 95/189/80
f 94/188/81 90/180/81 93/186/81
f 95/190/81 91/183/81 96/191/81
f 92/184/77 95/189/77 93/186/77
f 92/184/78 90/180/78 89/177/78
f 96/192/79 91/182/79 89/178/79
f 96/192/80 94/187/80 93/186/80
f 94/188/81 89/179/81 90/180/81
f 95/190/81 92/185/81 91/183/81
o bottomfinlast
v 0.000625 0.015625 1.500000
v 0.000625 0.015625 1.000000
v 0.000625 -0.234375 1.500000
v 0.000625 -0.234375 1.000000
v 0.000625 0.015625 1.000000
v 0.000625 0.015625 1.500000
v 0.000625 -0.234375 1.000000
v 0.000625 -0.234375 1.500000
vn -0.0000 -0.0000 -1.0000
vn 1.0000 -0.0000 -0.0000
vn -0.0000 -0.0000 1.0000
vn -1.0000 -0.0000 -0.0000
vn -0.0000 -0.0000 -0.0000
vt 0.750000 0.640625
vt 1.000000 0.640625
vt 0.875000 0.765625
vt 0.875000 0.640625
vt 0.750000 0.578125
vt 1.000000 0.578125
vt 0.875000 0.765625
vt 0.875000 0.578125
vt 0.875000 0.640625
vt 0.875000 0.640625
vt 1.000000 0.640625
vt 0.875000 0.765625
vt 0.875000 0.578125
vt 0.875000 0.640625
vt 0.875000 0.765625
vt 1.000000 0.578125
s 0
f 100/200/82 101/202/82 98/196/82
f 100/200/83 97/193/83 99/197/83
f 104/208/84 97/194/84 102/203/84
f 104/208/85 101/202/85 103/205/85
f 102/204/86 98/196/86 101/202/86
f 103/206/86 99/199/86 104/207/86
f 100/200/82 103/205/82 101/202/82
f 100/200/83 98/196/83 97/193/83
f 104/208/84 99/198/84 97/194/84
f 104/208/85 102/203/85 101/202/85
f 102/204/86 97/195/86 98/196/86
f 103/206/86 100/201/86 99/199/86
o tail
v 0.000000 0.531250 2.500000
v 0.000000 0.531250 1.312500
v 0.000000 -0.281250 2.500000
v 0.000000 -0.281250 1.312500
v 0.000000 0.531250 1.312500
v 0.000000 0.531250 2.500000
v 0.000000 -0.281250 1.312500
v 0.000000 -0.281250 2.500000
vn -0.0000 -0.0000 -1.0000
vn 1.0000 -0.0000 -0.0000
vn -0.0000 -0.0000 1.0000
vn -1.0000 -0.0000 -0.0000
vn -0.0000 -0.0000 -0.0000
vt 0.406250 0.203125
vt 1.000000 0.203125
vt 0.703125 0.500000
vt 0.703125 0.203125
vt 0.406250 0.000000
vt 1.000000 0.000000
vt 0.703125 0.500000
vt 0.703125 0.000000
vt 0.703125 0.203125
vt 0.703125 0.203125
vt 1.000000 0.203125
vt 0.703125 0.500000
vt 0.703125 0.000000
vt 0.703125 0.203125
vt 0.703125 0.500000
vt 1.000000 0.000000
s 0
f 108/216/87 109/218/87 106/212/87
f 108/216/88 105/209/88 107/213/88
f 112/224/89 105/210/89 110/219/89
f 112/224/90 109/218/90 111/221/90
f 110/220/91 106/212/91 109/218/91
f 111/222/91 107/215/91 112/223/91
f 108/216/87 111/221/87 109/218/87
f 108/216/88 106/212/88 105/209/88
f 112/224/89 107/214/89 105/210/89
f 112/224/90 110/219/90 109/218/90
f 110/220/91 105/211/91 106/212/91
f 111/222/91 108/217/91 107/215/91
o tailbodyseg
v 0.093750 0.218750 2.000000
v 0.093750 0.218750 1.500000
v 0.093750 0.031250 2.000000
v 0.093750 0.031250 1.500000
v -0.093750 0.218750 1.500000
v -0.093750 0.218750 2.000000
v -0.093750 0.031250 1.500000
v -0.093750 0.031250 2.000000
vn -0.0000 -0.0000 -1.0000
vn 1.0000 -0.0000 -0.0000
vn -0.0000 -0.0000 1.0000
vn -1.0000 -0.0000 -0.0000
vn -0.0000 1.0000 -0.0000
vn -0.0000 -1.0000 -0.0000
vt 0.000000 0.093750
vt 0.343750 0.093750
vt 0.125000 0.218750
vt 0.125000 0.093750
vt 0.000000 0.046875
vt 0.343750 0.046875
vt 0.171875 0.218750
vt 0.125000 0.046875
vt 0.171875 0.093750
vt 0.171875 0.093750
vt 0.171875 0.218750
vt 0.296875 0.093750
vt 0.218750 0.093750
vt 0.171875 0.046875
vt 0.296875 0.046875
vt 0.218750 0.218750
s 0
f 119/238/92 114/228/92 116/232/92
f 116/232/93 113/225/93 115/229/93
f 115/230/94 118/236/94 120/239/94
f 120/239/95 117/234/95 119/238/95
f 113/227/96 117/234/96 118/235/96
f 116/233/97 120/240/97 119/237/97
f 119/238/92 117/234/92 114/228/92
f 116/232/93 114/228/93 113/225/93
f 115/230/94 113/226/94 118/236/94
f 120/239/95 118/236/95 117/234/95
f 113/227/96 114/228/96 117/234/96
f 116/233/97 115/231/97 120/240/97
o tailtipseg
v 0.062500 0.171875 2.187500
v 0.062500 0.171875 2.000000
v 0.062500 0.046875 2.187500
v 0.062500 0.046875 2.000000
v -0.062500 0.171875 2.000000
v -0.062500 0.171875 2.187500
v -0.062500 0.046875 2.000000
v -0.062500 0.046875 2.187500
vn -0.0000 -0.0000 -1.0000
vn 1.0000 -0.0000 -0.0000
vn -0.0000 -0.0000 1.0000
vn -1.0000 -0.0000 -0.0000
vn -0.0000 1.0000 -0.0000
vn -0.0000 -1.0000 -0.0000
vt 0.671875 0.953125
vt 0.828125 0.953125
vt 0.718750 1.000000
vt 0.718750 0.953125
vt 0.671875 0.921875
vt 0.828125 0.921875
vt 0.750000 1.000000
vt 0.718750 0.921875
vt 0.750000 0.953125
vt 0.750000 0.953125
vt 0.750000 1.000000
vt 0.796875 0.953125
vt 0.781250 0.953125
vt 0.750000 0.921875
vt 0.796875 0.921875
vt 0.781250 1.000000
s 0
f 127/254/98 122/244/98 124/248/98
f 124/248/99 121/241/99 123/245/99
f 123/246/100 126/252/100 128/255/100
f 128/255/101 125/250/101 127/254/101
f 121/243/102 125/250/102 126/251/102
f 124/249/103 128/256/103 127/253/103
f 127/254/98 125/250/98 122/244/98
f 124/248/99 122/244/99 121/241/99
f 123/246/100 121/242/100 126/252/100
f 128/255/101 126/252/101 125/250/101
f 121/243/102 122/244/102 125/250/102
f 124/249/103 123/247/103 128/256/103
o endbodyseg
v 0.093750 0.265625 1.500000
v 0.093750 0.265625 1.000000
v 0.093750 0.015625 1.500000
v 0.093750 0.015625 1.000000
v -0.093750 0.265625 1.000000
v -0.093750 0.265625 1.500000
v -0.093750 0.015625 1.000000
v -0.093750 0.015625 1.500000
vn -0.0000 -0.0000 -1.0000
vn 1.0000 -0.0000 -0.0000
vn -0.0000 -0.0000 1.0000
vn -1.0000 -0.0000 -0.0000
vn -0.0000 1.0000 -0.0000
vn -0.0000 -1.0000 -0.0000
vt 0.000000 0.281250
vt 0.343750 0.281250
vt 0.125000 0.406250
vt 0.125000 0.281250
vt 0.000000 0.218750
vt 0.343750 0.218750
vt 0.171875 0.406250
vt 0.125000 0.218750
vt 0.171875 0.281250
vt 0.171875 0.281250
vt 0.171875 0.406250
vt 0.296875 0.281250
vt 0.218750 0.281250
vt 0.171875 0.218750
vt 0.296875 0.218750
vt 0.218750 0.406250
s 0
f 135/270/104 130/260/104 132/264/104
f 132/264/105 129/257/105 131/261/105
f 131/262/106 134/268/106 136/271/106
f 136/271/107 133/266/107 135/270/107
f 129/259/108 133/266/108 134/267/108
f 132/265/109 136/272/109 135/269/109
f 135/270/104 133/266/104 130/260/104
f 132/264/105 130/260/105 129/257/105
f 131/262/106 129/258/106 134/268/106
f 136/271/107 134/268/107 133/266/107
f 129/259/108 130/260/108 133/266/108
f 132/265/109 131/263/109 136/272/109
o midbodysegtwo
v 0.093750 0.312500 1.000000
v 0.093750 0.312500 0.500000
v 0.093750 -0.000000 1.000000
v 0.093750 -0.000000 0.500000
v -0.093750 0.312500 0.500000
v -0.093750 0.312500 1.000000
v -0.093750 -0.000000 0.500000
v -0.093750 -0.000000 1.000000
vn -0.0000 -0.0000 -1.0000
vn 1.0000 -0.0000 -0.0000
vn -0.0000 -0.0000 1.0000
vn -1.0000 -0.0000 -0.0000
vn -0.0000 1.0000 -0.0000
vn -0.0000 -1.0000 -0.0000
vt 0.000000 0.484375
vt 0.343750 0.484375
vt 0.125000 0.609375
vt 0.125000 0.484375
vt 0.000000 0.406250
vt 0.343750 0.406250
vt 0.171875 0.609375
vt 0.125000 0.406250
vt 0.171875 0.484375
vt 0.171875 0.484375
vt 0.171875 0.609375
vt 0.296875 0.484375
vt 0.218750 0.484375
vt 0.171875 0.406250
vt 0.296875 0.406250
vt 0.218750 0.609375
s 0
f 143/286/110 138/276/110 140/280/110
f 140/280/111 137/273/111 139/277/111
f 139/278/112 142/284/112 144/287/112
f 144/287/113 141/282/113 143/286/113
f 137/275/114 141/282/114 142/283/114
f 140/281/115 144/288/115 143/285/115
f 143/286/110 141/282/110 138/276/110
f 140/280/111 138/276/111 137/273/111
f 139/278/112 137/274/112 142/284/112
f 144/287/113 142/284/113 141/282/113
f 137/275/114 138/276/114 141/282/114
f 140/281/115 139/279/115 144/288/115
o midbodyseg
v 0.125625 0.313125 0.500625
v 0.125625 0.313125 -0.000625
v 0.125625 -0.000625 0.500625
v 0.125625 -0.000625 -0.000625
v -0.125625 0.313125 -0.000625
v -0.125625 0.313125 0.500625
v -0.125625 -0.000625 -0.000625
v -0.125625 -0.000625 0.500625
vn -0.0000 -0.0000 -1.0000
vn 1.0000 -0.0000 -0.0000
vn -0.0000 -0.0000 1.0000
vn -1.0000 -0.0000 -0.0000
vn -0.0000 1.0000 -0.0000
vn -0.0000 -1.0000 -0.0000
vt 0.000000 0.687500
vt 0.375000 0.687500
vt 0.125000 0.812500
vt 0.125000 0.687500
vt 0.000000 0.609375
vt 0.375000 0.609375
vt 0.187500 0.812500
vt 0.125000 0.609375
vt 0.187500 0.687500
vt 0.187500 0.687500
vt 0.187500 0.812500
vt 0.312500 0.687500
vt 0.250000 0.687500
vt 0.187500 0.609375
vt 0.312500 0.609375
vt 0.250000 0.812500
s 0
f 151/302/116 146/292/116 148/296/116
f 148/296/117 145/289/117 147/293/117
f 147/294/118 150/300/118 152/303/118
f 152/303/119 149/298/119 151/302/119
f 145/291/120 149/298/120 150/299/120
f 148/297/121 152/304/121 151/301/121
f 151/302/116 149/298/116 146/292/116
f 148/296/117 146/292/117 145/289/117
f 147/294/118 145/290/118 150/300/118
f 152/303/119 150/300/119 149/298/119
f 145/291/120 146/292/120 149/298/120
f 148/297/121 147/295/121 152/304/121
